<svg width="25" height="32" viewBox="0 0 25 32" fill="none" xmlns="http://www.w3.org/2000/svg">
<g clip-path="url(#clip0_218_2762)">
<path fill-rule="evenodd" clip-rule="evenodd" d="M22 10H19.75V9.25C19.75 8.42157 19.0784 7.75 18.25 7.75H6.25C5.42157 7.75 4.75 8.42157 4.75 9.25V10H2.5C1.67157 10 1 10.6716 1 11.5V13C1 15.0711 2.67893 16.75 4.75 16.75H5.09219C5.99518 19.6116 8.51452 21.6614 11.5 21.9634V24.25H9.25C8.83579 24.25 8.5 24.5858 8.5 25C8.5 25.4142 8.83579 25.75 9.25 25.75H15.25C15.6642 25.75 16 25.4142 16 25C16 24.5858 15.6642 24.25 15.25 24.25H13V21.9606C15.9944 21.6578 18.4788 19.5569 19.3825 16.75H19.75C21.8211 16.75 23.5 15.0711 23.5 13V11.5C23.5 10.6716 22.8284 10 22 10ZM4.75 15.25C3.50736 15.25 2.5 14.2426 2.5 13V11.5H4.75V14.5C4.75 14.75 4.76219 15 4.78656 15.25H4.75ZM18.25 14.4156C18.25 17.7456 15.5791 20.4756 12.2959 20.5H12.25C8.93629 20.5 6.25 17.8137 6.25 14.5V9.25H18.25V14.4156ZM22 13C22 14.2426 20.9926 15.25 19.75 15.25H19.7031C19.7339 14.9729 19.7495 14.6944 19.75 14.4156V11.5H22V13Z" fill="#F2F2F2"/>
</g>
<defs>
<clipPath id="clip0_218_2762">
<rect width="24" height="24" fill="white" transform="translate(0.25 4)"/>
</clipPath>
</defs>
</svg>
