<svg width="25" height="32" viewBox="0 0 25 32" fill="none" xmlns="http://www.w3.org/2000/svg">
<g clip-path="url(#clip0_218_2755)">
<path fill-rule="evenodd" clip-rule="evenodd" d="M17.25 14.5H15C14.5858 14.5 14.25 14.1642 14.25 13.75C14.25 13.3358 14.5858 13 15 13H17.25C17.6642 13 18 13.3358 18 13.75C18 14.1642 17.6642 14.5 17.25 14.5ZM10.5 13H9.75V12.25C9.75 11.8358 9.41421 11.5 9 11.5C8.58579 11.5 8.25 11.8358 8.25 12.25V13H7.5C7.08579 13 6.75 13.3358 6.75 13.75C6.75 14.1642 7.08579 14.5 7.5 14.5H8.25V15.25C8.25 15.6642 8.58579 16 9 16C9.41421 16 9.75 15.6642 9.75 15.25V14.5H10.5C10.9142 14.5 11.25 14.1642 11.25 13.75C11.25 13.3358 10.9142 13 10.5 13ZM23.3888 22.8109C22.8166 23.628 21.9123 24.1501 20.9186 24.2371C19.9249 24.3241 18.9436 23.9671 18.2381 23.2619C18.2269 23.2506 18.2156 23.2394 18.2053 23.2272L14.4825 19H11.0138L7.29469 23.2272L7.26188 23.2619C6.62832 23.8941 5.77002 24.2494 4.875 24.25C3.87761 24.2496 2.93147 23.8081 2.29049 23.044C1.64951 22.2798 1.37934 21.2713 1.5525 20.2891C1.55205 20.2847 1.55205 20.2803 1.5525 20.2759L3.08719 12.3925C3.55866 9.70851 5.8896 7.75077 8.61469 7.75H16.875C19.5908 7.75433 21.9167 9.69592 22.4062 12.3672C22.4062 12.3728 22.4062 12.3784 22.4062 12.3841L23.9409 20.275C23.9414 20.2794 23.9414 20.2838 23.9409 20.2881C24.1014 21.1691 23.9025 22.0776 23.3888 22.8109ZM16.875 17.5C19.1532 17.5 21 15.6532 21 13.375C21 11.0968 19.1532 9.25 16.875 9.25H8.61469C6.61545 9.25179 4.90667 10.6901 4.56375 12.6597V12.6719L3.02813 20.5553C2.88886 21.3572 3.2828 22.1573 4.00323 22.5359C4.72367 22.9145 5.60609 22.7851 6.1875 22.2156L10.1175 17.7541C10.2598 17.5926 10.4647 17.5 10.68 17.5H16.875ZM22.4719 20.5553L21.6525 16.3366C20.6279 17.991 18.821 18.9984 16.875 19H16.4812L19.3125 22.2166C19.7455 22.6378 20.3543 22.8257 20.9494 22.7219C21.9669 22.5423 22.6473 21.5734 22.4709 20.5553H22.4719Z" fill="#F2F2F2"/>
</g>
<defs>
<clipPath id="clip0_218_2755">
<rect width="24" height="24" fill="white" transform="translate(0.75 4)"/>
</clipPath>
</defs>
</svg>
