<svg width="25" height="32" viewBox="0 0 25 32" fill="none" xmlns="http://www.w3.org/2000/svg">
<g clip-path="url(#clip0_218_2748)">
<path fill-rule="evenodd" clip-rule="evenodd" d="M21.25 14.8328V23.5C21.25 24.3284 20.5784 25 19.75 25H16C15.1716 25 14.5 24.3284 14.5 23.5V19.75C14.5 19.3358 14.1642 19 13.75 19H10.75C10.3358 19 10 19.3358 10 19.75V23.5C10 24.3284 9.32843 25 8.5 25H4.75C3.92157 25 3.25 24.3284 3.25 23.5V14.8328C3.24994 14.4131 3.42573 14.0125 3.73469 13.7284L11.2347 6.65219L11.245 6.64188C11.8172 6.1215 12.6912 6.1215 13.2634 6.64188C13.2666 6.64554 13.2701 6.64899 13.2738 6.65219L20.7738 13.7284C21.0796 14.014 21.2522 14.4144 21.25 14.8328Z" fill="#F2F2F2"/>
</g>
<defs>
<clipPath id="clip0_218_2748">
<rect width="24" height="24" fill="white" transform="translate(0.25 4)"/>
</clipPath>
</defs>
</svg>
