<svg width="62" height="56" viewBox="0 0 62 56" fill="none" xmlns="http://www.w3.org/2000/svg">
<g clip-path="url(#clip0_176_6133)">
<path d="M27.8653 36.4225C27.4189 36.9314 27.0025 37.405 26.5861 37.8813C22.1033 43.0009 17.6206 48.1233 13.1379 53.2429C12.3812 54.1057 11.6246 54.9685 10.8734 55.8367C10.77 55.9564 10.6638 56.0027 10.5087 56C7.50114 55.9946 4.49361 55.9973 1.48608 55.9973H1.30916C1.29827 55.9755 1.29283 55.9673 1.29011 55.9592C1.29011 55.951 1.29011 55.9428 1.29011 55.9347C1.29827 55.9183 1.30644 55.9047 1.31733 55.8911C1.34454 55.8557 1.37448 55.8231 1.40442 55.7904C8.72049 47.4292 16.0393 39.068 23.3553 30.7068C23.3662 30.6932 23.3744 30.6768 23.3853 30.6632C23.3907 30.6551 23.3907 30.6469 23.407 30.6088C15.6256 20.4295 7.8332 10.2419 0 0.00272175H0.318445C6.66284 0.00272175 13.0072 0.00272175 19.3544 0C19.5313 0 19.6429 0.0489915 19.7517 0.193244C22.9634 4.44462 26.1778 8.69327 29.3922 12.9419C30.5843 14.5178 31.7737 16.091 32.9658 17.6642C33.0175 17.7322 33.0747 17.7975 33.1455 17.8819C33.2217 17.8002 33.2897 17.7322 33.3523 17.6587C38.4202 11.8695 43.4881 6.07767 48.556 0.285784C48.5914 0.244957 48.6322 0.209575 48.6622 0.166027C48.7493 0.032661 48.869 0 49.0242 0C49.8788 0.0054435 50.7334 0.00272175 51.588 0.00272175C53.7056 0.00272175 55.8231 0.00272175 57.9406 0.00272175H58.2972C57.4126 1.02882 56.5498 2.00321 55.6924 2.98304C54.8269 3.97375 53.9587 4.96447 53.0904 5.95519C52.2304 6.93774 51.3676 7.92301 50.5048 8.90557C49.6365 9.89628 48.771 10.887 47.9028 11.8777C47.0427 12.863 46.1799 13.8455 45.3199 14.8308C44.4598 15.8161 43.597 16.7986 42.7369 17.7839C41.8687 18.7746 41.0032 19.7653 40.1349 20.7561C39.2748 21.7386 38.4148 22.7239 37.5411 23.7228C45.6737 34.471 53.7954 45.2055 61.9525 55.9864C61.8055 55.9891 61.7048 55.9946 61.6041 55.9946C56.3266 55.9946 51.0519 55.9946 45.7744 55.9946C44.8762 55.9946 43.978 55.9918 43.0771 55.9973C42.9111 55.9973 42.805 55.9537 42.6988 55.8149C37.8269 49.4406 32.9522 43.069 28.0776 36.6973C28.015 36.613 27.9496 36.5313 27.8626 36.4197L27.8653 36.4225ZM11.102 5.38906C11.1891 5.51154 11.2381 5.58503 11.2925 5.65307C12.1363 6.75538 12.9773 7.85769 13.821 8.96C18.4916 15.0622 23.1621 21.167 27.8299 27.2692C32.0622 32.7998 36.2945 38.3304 40.5268 43.861C42.1272 45.9513 43.7276 48.0416 45.3253 50.1346C45.4178 50.2571 45.5131 50.3224 45.6764 50.3224C47.2877 50.317 48.899 50.3197 50.5075 50.317C50.5647 50.317 50.6218 50.3007 50.7062 50.287C50.6381 50.1918 50.5892 50.1183 50.5374 50.0475C50.2598 49.6774 49.9795 49.3099 49.6992 48.9425C45.9921 44.0406 42.2824 39.1415 38.5754 34.2396C34.3131 28.6083 30.0536 22.977 25.7913 17.343C22.83 13.4264 19.866 9.51251 16.9075 5.59319C16.7959 5.4435 16.6816 5.37818 16.4911 5.3809C14.7927 5.38906 13.0916 5.38634 11.3932 5.38634C11.3143 5.38634 11.2354 5.38634 11.102 5.38634V5.38906Z" fill="black"/>
</g>
<defs>
<clipPath id="clip0_176_6133">
<rect width="61.9552" height="56" fill="white"/>
</clipPath>
</defs>
</svg>
