<svg width="64" height="64" viewBox="0 0 64 64" fill="none" xmlns="http://www.w3.org/2000/svg">
<mask id="mask0_176_6132" style="mask-type:luminance" maskUnits="userSpaceOnUse" x="0" y="0" width="64" height="64">
<path d="M63.959 0H0V63.959H63.959V0Z" fill="white"/>
</mask>
<g mask="url(#mask0_176_6132)">
<mask id="mask1_176_6132" style="mask-type:alpha" maskUnits="userSpaceOnUse" x="0" y="0" width="64" height="64">
<path d="M31.9596 63.9191C49.6104 63.9191 63.9191 49.6104 63.9191 31.9596C63.9191 14.3088 49.6104 0 31.9596 0C14.3088 0 0 14.3088 0 31.9596C0 49.6104 14.3088 63.9191 31.9596 63.9191Z" fill="#D9D9D9"/>
</mask>
<g mask="url(#mask1_176_6132)">
<path d="M74.7504 -13.8943H-9.8623V70.7183H74.7504V-13.8943Z" fill="#A1723A"/>
<g filter="url(#filter0_f_176_6132)">
<path d="M34.4008 62.5753C53.2362 62.5753 68.5049 47.3107 68.5049 28.4812C68.5049 9.65143 53.2362 -5.61304 34.4008 -5.61304C15.5658 -5.61304 0.296875 9.65143 0.296875 28.4812C0.296875 47.3107 15.5658 62.5753 34.4008 62.5753Z" fill="#531002"/>
</g>
<g filter="url(#filter1_f_176_6132)">
<path d="M38.0767 51.7836C53.3533 51.7836 65.7379 39.3951 65.7379 24.1131C65.7379 8.83096 53.3533 -3.55762 38.0767 -3.55762C22.8002 -3.55762 10.416 8.83096 10.416 24.1131C10.416 39.3951 22.8002 51.7836 38.0767 51.7836Z" fill="#2B5DF0"/>
</g>
<g filter="url(#filter2_f_176_6132)">
<path d="M37.572 53.3648C53.4983 53.3648 66.4086 40.4498 66.4086 24.5183C66.4086 8.5867 53.4983 -4.32837 37.572 -4.32837C21.646 -4.32837 8.73535 8.5867 8.73535 24.5183C8.73535 40.4498 21.646 53.3648 37.572 53.3648Z" fill="url(#paint0_radial_176_6132)"/>
</g>
<g filter="url(#filter3_f_176_6132)">
<path d="M42.3552 31.7819C50.3784 31.7819 56.8823 25.278 56.8823 17.2548C56.8823 9.23177 50.3784 2.72778 42.3552 2.72778C34.332 2.72778 27.8281 9.23177 27.8281 17.2548C27.8281 25.278 34.332 31.7819 42.3552 31.7819Z" fill="#FCB8D4"/>
</g>
<g filter="url(#filter4_f_176_6132)">
<path d="M42.3459 23.046C45.55 23.046 48.1469 20.4489 48.1469 17.245C48.1469 14.0413 45.55 11.4441 42.3459 11.4441C39.1421 11.4441 36.5449 14.0413 36.5449 17.245C36.5449 20.4489 39.1421 23.046 42.3459 23.046Z" fill="white"/>
</g>
<g filter="url(#filter5_f_176_6132)">
<path d="M38.4919 75.1651C67.2822 75.1651 90.6215 51.8261 90.6215 23.0358C90.6215 -5.75452 67.2822 -29.0938 38.4919 -29.0938C9.70152 -29.0938 -13.6377 -5.75452 -13.6377 23.0358C-13.6377 51.8261 9.70152 75.1651 38.4919 75.1651Z" fill="url(#paint1_radial_176_6132)" fill-opacity="0.9"/>
</g>
</g>
</g>
<defs>
<filter id="filter0_f_176_6132" x="-7.60901" y="-13.5189" width="84.0198" height="84" filterUnits="userSpaceOnUse" color-interpolation-filters="sRGB">
<feFlood flood-opacity="0" result="BackgroundImageFix"/>
<feBlend mode="normal" in="SourceGraphic" in2="BackgroundImageFix" result="shape"/>
<feGaussianBlur stdDeviation="3.95294" result="effect1_foregroundBlur_176_6132"/>
</filter>
<filter id="filter1_f_176_6132" x="-5.3958" y="-19.3694" width="86.9459" height="86.9649" filterUnits="userSpaceOnUse" color-interpolation-filters="sRGB">
<feFlood flood-opacity="0" result="BackgroundImageFix"/>
<feBlend mode="normal" in="SourceGraphic" in2="BackgroundImageFix" result="shape"/>
<feGaussianBlur stdDeviation="7.90591" result="effect1_foregroundBlur_176_6132"/>
</filter>
<filter id="filter2_f_176_6132" x="2.80592" y="-10.2578" width="69.5317" height="69.552" filterUnits="userSpaceOnUse" color-interpolation-filters="sRGB">
<feFlood flood-opacity="0" result="BackgroundImageFix"/>
<feBlend mode="normal" in="SourceGraphic" in2="BackgroundImageFix" result="shape"/>
<feGaussianBlur stdDeviation="2.96472" result="effect1_foregroundBlur_176_6132"/>
</filter>
<filter id="filter3_f_176_6132" x="15.9693" y="-9.13106" width="52.7714" height="52.7716" filterUnits="userSpaceOnUse" color-interpolation-filters="sRGB">
<feFlood flood-opacity="0" result="BackgroundImageFix"/>
<feBlend mode="normal" in="SourceGraphic" in2="BackgroundImageFix" result="shape"/>
<feGaussianBlur stdDeviation="5.92942" result="effect1_foregroundBlur_176_6132"/>
</filter>
<filter id="filter4_f_176_6132" x="28.639" y="3.53821" width="27.4133" height="27.4136" filterUnits="userSpaceOnUse" color-interpolation-filters="sRGB">
<feFlood flood-opacity="0" result="BackgroundImageFix"/>
<feBlend mode="normal" in="SourceGraphic" in2="BackgroundImageFix" result="shape"/>
<feGaussianBlur stdDeviation="3.95294" result="effect1_foregroundBlur_176_6132"/>
</filter>
<filter id="filter5_f_176_6132" x="-19.5671" y="-35.0232" width="116.118" height="116.118" filterUnits="userSpaceOnUse" color-interpolation-filters="sRGB">
<feFlood flood-opacity="0" result="BackgroundImageFix"/>
<feBlend mode="normal" in="SourceGraphic" in2="BackgroundImageFix" result="shape"/>
<feGaussianBlur stdDeviation="2.96472" result="effect1_foregroundBlur_176_6132"/>
</filter>
<radialGradient id="paint0_radial_176_6132" cx="0" cy="0" r="1" gradientUnits="userSpaceOnUse" gradientTransform="translate(42.436 16.3801) rotate(128.228) scale(54.4616 54.4572)">
<stop offset="0.286458" stop-color="#387AFA"/>
<stop offset="0.647782" stop-color="#387AFA" stop-opacity="0"/>
</radialGradient>
<radialGradient id="paint1_radial_176_6132" cx="0" cy="0" r="1" gradientUnits="userSpaceOnUse" gradientTransform="translate(38.4919 23.0358) rotate(90) scale(52.1295 52.1295)">
<stop offset="0.598958" stop-opacity="0"/>
<stop offset="0.671875"/>
<stop offset="0.734375" stop-opacity="0"/>
</radialGradient>
</defs>
</svg>
