<svg width="32" height="10" viewBox="0 0 32 10" fill="none" xmlns="http://www.w3.org/2000/svg">
<path style="mix-blend-mode:multiply" opacity="0.5" fill-rule="evenodd" clip-rule="evenodd" d="M31.1467 5.84185C31.1467 5.84185 29.3667 8.08185 19.8867 8.89185C10.4067 9.70185 0.866701 9.27185 0.0467011 8.89185C-0.773299 8.51185 9.47671 4.39185 9.47671 4.39185L31.1467 5.84185Z" fill="url(#paint0_linear_183_6060)"/>
<path fill-rule="evenodd" clip-rule="evenodd" d="M31.1463 5.84185C30.1763 7.33185 9.73627 7.63186 8.21627 6.52185C6.92627 5.58185 12.2163 2.50185 13.8363 1.60185C13.9263 1.56185 13.9863 1.51185 14.0463 1.48185C14.1963 1.39185 14.2963 1.34185 14.2963 1.34185C14.2963 1.34185 18.8463 -0.278147 21.5063 0.0418533C24.1763 0.361853 29.6763 2.63185 29.6763 2.63185C29.6763 2.63185 32.1163 4.36185 31.1363 5.84185H31.1463Z" fill="url(#paint1_linear_183_6060)"/>
<path style="mix-blend-mode:multiply" opacity="0.3" fill-rule="evenodd" clip-rule="evenodd" d="M31.1463 5.84181C30.1763 7.33181 9.73627 7.63181 8.21627 6.52181C6.92627 5.58181 12.2163 2.50181 13.8363 1.60181C12.6563 2.29181 9.68628 4.18181 10.8063 5.17181C12.1863 6.39181 27.5963 6.92181 31.1463 5.85181V5.84181Z" fill="url(#paint2_linear_183_6060)"/>
<defs>
<linearGradient id="paint0_linear_183_6060" x1="15.5767" y1="9.35185" x2="15.5767" y2="4.39185" gradientUnits="userSpaceOnUse">
<stop stop-color="#38327F"/>
<stop offset="1" stop-color="#1513A7"/>
</linearGradient>
<linearGradient id="paint1_linear_183_6060" x1="19.6963" y1="7.19185" x2="19.6963" y2="0.00185308" gradientUnits="userSpaceOnUse">
<stop stop-color="#482ACC"/>
<stop offset="1" stop-color="#2588FF"/>
</linearGradient>
<linearGradient id="paint2_linear_183_6060" x1="19.5863" y1="7.19181" x2="19.5863" y2="1.59181" gradientUnits="userSpaceOnUse">
<stop stop-color="#38327F"/>
<stop offset="1" stop-color="#7B93FF"/>
</linearGradient>
</defs>
</svg>
