<svg width="60" height="60" viewBox="0 0 60 60" fill="none" xmlns="http://www.w3.org/2000/svg">
<path fill-rule="evenodd" clip-rule="evenodd" d="M2.62301e-06 29.9963C2.87473e-06 27.1169 0.407111 24.3227 1.16951 21.6876C1.28424 21.2953 1.40267 20.9104 1.5359 20.5218C3.13102 15.6958 5.92525 11.4212 9.56329 8.03479C12.376 5.4145 15.6921 3.33086 19.3449 1.943C22.6573 0.680974 26.2398 -2.95141e-06 29.9963 -2.62301e-06C30.5292 -2.57642e-06 31.0659 0.0110982 31.5914 0.0444082L31.5988 0.0444082C32.3834 0.0814185 33.1643 0.159139 33.9304 0.255365C38.7047 0.880827 43.1125 2.62398 46.906 5.22576C46.9578 5.25906 47.0059 5.28867 47.0577 5.33308C47.8164 5.85121 48.5529 6.41006 49.2561 7.00592C50.8586 8.34196 52.3131 9.84826 53.601 11.4952C54.5781 12.7313 55.4552 14.0414 56.2287 15.4256C56.4138 15.755 56.5914 16.0918 56.7654 16.4249C56.7654 16.4397 56.7728 16.4434 56.7802 16.4582C56.9652 16.8209 57.1355 17.1799 57.2983 17.5463L57.3057 17.5463C57.8238 18.6936 58.2828 19.8779 58.6492 21.0918C58.8009 21.5803 58.9452 22.0725 59.0748 22.5759C59.1747 22.9756 59.2709 23.3716 59.3523 23.7787C59.3597 23.7861 59.3597 23.7972 59.3597 23.8046C59.493 24.4449 59.6077 25.0888 59.6965 25.7439C59.9001 27.1355 60 28.5566 60 29.9963C60 30.8253 59.9704 31.6543 59.8927 32.4648C59.8853 32.5352 59.8779 32.5981 59.8742 32.6684C59.8409 33.1162 59.7927 33.5677 59.7298 34.0118C59.5041 35.7661 59.1155 37.4685 58.5899 39.1081C58.2346 40.2295 57.8127 41.3249 57.3316 42.3871C56.7506 43.6714 56.077 44.9075 55.3257 46.0918C54.0711 48.0681 52.5907 49.8779 50.9178 51.5063C46.2324 56.0622 40.0777 59.097 33.2309 59.8224C32.1688 59.9445 31.0918 60 30 60C29.6854 60 29.3671 59.9926 29.0563 59.9889C28.7195 59.9778 28.3864 59.963 28.0496 59.9371C26.3286 59.8224 24.641 59.5707 23.0163 59.1747C22.0651 58.9489 21.1362 58.6825 20.2258 58.3642C19.604 58.1569 18.997 57.9201 18.3975 57.6684C17.9497 57.4796 17.5093 57.2835 17.0762 57.0725C16.9985 57.0355 16.9245 57.0022 16.8468 56.9652C13.9341 55.5403 11.2953 53.6676 9.00075 51.4175C8.67136 51.0992 8.35307 50.7698 8.03849 50.4367C7.82754 50.2072 7.62029 49.9741 7.41673 49.7409C7.06884 49.3486 6.73205 48.9378 6.40267 48.5233C5.20725 47.0022 4.15619 45.3701 3.27536 43.6343C2.24279 41.621 1.43228 39.4745 0.880838 37.2243C0.451529 35.4885 0.170245 33.6899 0.059218 31.8468C0.0222079 31.2324 0.00371046 30.6107 0.00371051 29.9926L2.62301e-06 29.9963Z" fill="url(#paint0_radial_506_12000)" fill-opacity="0.63"/>
<path d="M47.8114 46.5658C50.5958 44.1026 52.5129 40.7206 53.1643 37.0909" stroke="white" stroke-opacity="0.77" stroke-width="2.37" stroke-linecap="round" stroke-linejoin="round"/>
<path d="M35.6961 54.6427C36.4886 54.4726 37.2514 54.2175 37.9746 53.8774" stroke="white" stroke-opacity="0.77" stroke-width="2.37" stroke-linecap="round" stroke-linejoin="round"/>
<path d="M12.6666 12.5933C9.95574 15.1384 8.13876 18.576 7.59432 22.2236" stroke="white" stroke-opacity="0.77" stroke-width="2.37" stroke-linecap="round" stroke-linejoin="round"/>
<defs>
<radialGradient id="paint0_radial_506_12000" cx="0" cy="0" r="1" gradientUnits="userSpaceOnUse" gradientTransform="translate(18.664 16.6728) rotate(-180) scale(53.0237)">
<stop stop-color="#34B1FC"/>
<stop offset="0.8" stop-color="#0057A4"/>
</radialGradient>
</defs>
</svg>
