<svg width="57" height="56" viewBox="0 0 57 56" fill="none" xmlns="http://www.w3.org/2000/svg">
<path fill-rule="evenodd" clip-rule="evenodd" d="M2.07261 17.8273C3.03922 15.3481 4.33048 13.08 5.87658 11.069C6.10782 10.7701 6.33979 10.4787 6.58585 10.1892C9.58996 6.57348 13.4494 3.83823 17.7427 2.1532C21.0628 0.848609 24.6394 0.176344 28.2747 0.21709C31.5723 0.250992 34.9093 0.876588 38.1685 2.14736C38.6309 2.32765 39.0928 2.51874 39.5376 2.7252L39.544 2.72771C40.2123 3.02499 40.8638 3.35609 41.4962 3.6981C45.4285 5.8517 48.6678 8.8437 51.0857 12.3672C51.1195 12.4134 51.1513 12.4551 51.1814 12.5109C51.6657 13.2137 52.1171 13.944 52.5272 14.6949C53.4691 16.3874 54.2254 18.1764 54.7899 20.0301C55.2227 21.425 55.5439 22.8497 55.7504 24.3032C55.8003 24.6494 55.8414 24.9995 55.8805 25.3451C55.8755 25.3578 55.8807 25.3635 55.8822 25.3788C55.921 25.7537 55.9482 26.1204 55.9664 26.4909L55.9729 26.4934C56.0373 27.6565 56.0379 28.8315 55.9482 30.0007C55.9159 30.4726 55.8759 30.9453 55.8193 31.4225C55.7718 31.8004 55.7224 32.1739 55.6563 32.552C55.6603 32.5609 55.6566 32.5704 55.6541 32.5768C55.5547 33.1732 55.4381 33.7664 55.2952 34.3605C55.0047 35.6275 54.6143 36.885 54.131 38.1246C53.8527 38.8384 53.5487 39.5421 53.2092 40.2137C53.1792 40.2718 53.1516 40.3234 53.1248 40.3827C52.9456 40.757 52.7522 41.1295 52.5486 41.4906C51.7638 42.9247 50.8551 44.2591 49.8487 45.4929C49.164 46.3383 48.4302 47.1388 47.6561 47.8906C46.7209 48.7998 45.7215 49.6362 44.672 50.4018C42.92 51.679 41.028 52.7364 39.0299 53.5726C33.4352 55.9103 27.0764 56.4413 20.8923 54.7496C19.9297 54.4955 18.9767 54.179 18.0294 53.8096C17.7565 53.7032 17.4828 53.5892 17.2143 53.4808C16.9258 53.3573 16.6418 53.2319 16.3583 53.0956C14.9036 52.4147 13.5238 51.6271 12.2471 50.7365C11.4976 50.2204 10.7811 49.6767 10.098 49.0946C9.62814 48.7058 9.18103 48.2966 8.74532 47.8771C8.42014 47.5631 8.10387 47.2452 7.79899 46.9171C7.74398 46.8589 7.69094 46.8052 7.63593 46.747C5.58713 44.5349 3.92629 42.0298 2.69081 39.3161C2.51187 38.9306 2.34629 38.5394 2.18516 38.1462C2.07916 37.8772 1.97761 37.6064 1.87928 37.3367C1.70913 36.8813 1.55483 36.4136 1.40819 35.9453C0.881646 34.2312 0.517607 32.4704 0.336069 30.6779C0.116055 28.5951 0.133437 26.4727 0.410383 24.3487C0.620596 22.7089 0.980369 21.0651 1.50277 19.4406C1.6769 18.8991 1.86958 18.3575 2.07706 17.8254L2.07261 17.8273Z" fill="url(#paint0_radial_136_5455)"/>
<defs>
<radialGradient id="paint0_radial_136_5455" cx="0" cy="0" r="1" gradientUnits="userSpaceOnUse" gradientTransform="translate(22.739 12.6693) rotate(-158.699) scale(49.3786 49.0017)">
<stop stop-color="#FCF200"/>
<stop offset="0.8" stop-color="#A43900"/>
</radialGradient>
</defs>
</svg>
