<svg width="56" height="56" viewBox="0 0 56 56" fill="none" xmlns="http://www.w3.org/2000/svg">
<path fill-rule="evenodd" clip-rule="evenodd" d="M0.12464 28.2723C0.12464 25.6113 0.50376 23.0291 1.21375 20.5939C1.32059 20.2313 1.43088 19.8756 1.55495 19.5165C3.04042 15.0565 5.64256 11.1061 9.03051 7.97661C11.6499 5.55508 14.738 3.6295 18.1397 2.34691C21.2244 1.18061 24.5606 0.551286 28.0589 0.551286C28.5552 0.551286 29.0549 0.561548 29.5443 0.592329L29.5512 0.592329C30.2819 0.626531 31.0091 0.698358 31.7226 0.787283C36.1686 1.36531 40.2734 2.97623 43.8061 5.38066C43.8544 5.41144 43.8992 5.4388 43.9474 5.47984C44.654 5.95867 45.3398 6.47513 45.9947 7.02579C47.487 8.26049 48.8415 9.65253 50.0409 11.1745C50.9508 12.3169 51.7676 13.5277 52.488 14.8068C52.6603 15.1112 52.8257 15.4225 52.9877 15.7303C52.9877 15.744 52.9946 15.7474 53.0015 15.7611C53.1738 16.0963 53.3324 16.428 53.484 16.7666L53.4909 16.7666C53.9734 17.8269 54.4008 18.9214 54.742 20.0432C54.8833 20.4947 55.0177 20.9496 55.1384 21.4147C55.2314 21.7841 55.321 22.1501 55.3969 22.5263C55.4038 22.5331 55.4038 22.5434 55.4038 22.5502C55.5278 23.1419 55.6347 23.7371 55.7174 24.3424C55.9069 25.6284 56 26.9418 56 28.2723C56 29.0384 55.9724 29.8045 55.9001 30.5536C55.8932 30.6186 55.8863 30.6767 55.8828 30.7417C55.8518 31.1555 55.807 31.5728 55.7484 31.9832C55.5382 33.6044 55.1763 35.1777 54.6869 36.6929C54.356 37.7292 53.9631 38.7416 53.515 39.7232C52.9739 40.91 52.3467 42.0524 51.647 43.1469C50.4786 44.9733 49.1 46.6458 47.5422 48.1507C43.1789 52.361 37.4473 55.1656 31.0711 55.8359C30.082 55.9488 29.0791 56.0001 28.0623 56.0001C27.7694 56.0001 27.473 55.9933 27.1834 55.9899C26.8698 55.9796 26.5596 55.9659 26.246 55.942C24.6433 55.8359 23.0717 55.6034 21.5587 55.2374C20.6729 55.0288 19.8078 54.7825 18.96 54.4884C18.381 54.2968 17.8157 54.0779 17.2574 53.8454C16.8404 53.6709 16.4302 53.4897 16.027 53.2947C15.9546 53.2605 15.8857 53.2297 15.8133 53.1955C13.1009 51.8787 10.6435 50.1481 8.50663 48.0686C8.19989 47.7745 7.90349 47.4701 7.61053 47.1622C7.41408 46.9502 7.22107 46.7347 7.03151 46.5192C6.70754 46.1567 6.3939 45.777 6.08716 45.394C4.97392 43.9883 3.99511 42.4799 3.17483 40.8758C2.21325 39.0152 1.45846 37.0315 0.944918 34.952C0.545118 33.3479 0.283182 31.6857 0.179785 29.9824C0.145319 29.4146 0.128092 28.84 0.128092 28.2689L0.12464 28.2723Z" fill="url(#paint0_radial_136_5439)"/>
<path d="M49.3755 38.3089C51.2773 35.2434 52.1131 31.574 51.6999 28.034" stroke="white" stroke-opacity="0.77" stroke-width="1.67626" stroke-linecap="round" stroke-linejoin="round"/>
<path d="M40.3163 49.2189C40.9746 48.8442 41.5822 48.3977 42.1301 47.8821" stroke="white" stroke-opacity="0.77" stroke-width="1.67626" stroke-linecap="round" stroke-linejoin="round"/>
<path d="M11.0253 11.9586C8.38589 14.4178 6.61678 17.7393 6.08667 21.2637" stroke="white" stroke-opacity="0.77" stroke-width="1.67626" stroke-linecap="round" stroke-linejoin="round"/>
<defs>
<radialGradient id="paint0_radial_136_5439" cx="0" cy="0" r="1" gradientUnits="userSpaceOnUse" gradientTransform="translate(17.5056 15.9594) rotate(-180) scale(49.3786 49.0017)">
<stop stop-color="#C7BF00"/>
<stop offset="0.14" stop-color="#C4BF00"/>
<stop offset="0.26" stop-color="#BABD01"/>
<stop offset="0.36" stop-color="#A8BB02"/>
<stop offset="0.46" stop-color="#90B804"/>
<stop offset="0.56" stop-color="#71B306"/>
<stop offset="0.65" stop-color="#4BAE09"/>
<stop offset="0.74" stop-color="#1FA80C"/>
<stop offset="0.8" stop-color="#00A40E"/>
</radialGradient>
</defs>
</svg>
