<svg width="161" height="161" viewBox="0 0 161 161" fill="none" xmlns="http://www.w3.org/2000/svg">
<path d="M80.5037 160.998C61.8806 160.998 43.8336 154.541 29.4377 142.726C15.0417 130.912 5.1876 114.472 1.55428 96.2063C-2.07905 77.9411 0.733231 58.9811 9.51194 42.5568C18.2906 26.1326 32.4926 13.2603 49.6981 6.13334C66.9035 -0.993663 86.0478 -1.93447 103.869 3.47123C121.69 8.87692 137.086 20.2947 147.433 35.779C157.78 51.2634 162.437 69.8563 160.612 88.3898C158.788 106.923 150.593 124.251 137.425 137.42C129.967 144.918 121.096 150.863 111.326 154.91C101.555 158.957 91.0792 161.027 80.5037 160.998V160.998Z" fill="url(#paint0_linear_2040_113)"/>
<path style="mix-blend-mode:screen" opacity="0.5" d="M31.111 135.898C30.3219 135.899 29.5406 135.744 28.8117 135.442C28.0829 135.14 27.421 134.696 26.8643 134.137C18.8602 126.107 12.7582 116.385 9.00699 105.685C5.25578 94.9857 3.95083 83.5814 5.18815 72.3111C6.42547 61.0408 10.1736 50.1913 16.1568 40.5605C22.1399 30.9297 30.206 22.7627 39.7617 16.6603C49.3173 10.5578 60.1194 6.67512 71.3734 5.29777C82.6274 3.92042 94.0471 5.08347 104.792 8.70136C115.538 12.3192 125.335 18.2999 133.464 26.2035C141.594 34.1071 147.848 43.7325 151.766 54.3718C152.051 55.1154 152.184 55.9082 152.16 56.7039C152.135 57.4997 151.952 58.2826 151.623 59.0072C151.293 59.7318 150.822 60.3836 150.238 60.9247C149.654 61.4658 148.968 61.8854 148.221 62.1592C147.473 62.433 146.678 62.5554 145.883 62.5194C145.088 62.4834 144.307 62.2896 143.588 61.9494C142.868 61.6092 142.223 61.1293 141.69 60.5377C141.157 59.946 140.748 59.2543 140.485 58.5029C137.196 49.534 131.936 41.4172 125.094 34.7507C118.252 28.0842 110.001 23.0378 100.95 19.9833C91.8983 16.9288 82.2769 15.944 72.7943 17.1016C63.3118 18.2592 54.2098 21.5295 46.159 26.6718C38.1082 31.814 31.3136 38.6971 26.2761 46.8138C21.2385 54.9305 18.0862 64.0741 17.0516 73.5708C16.0169 83.0675 17.1261 92.6754 20.2976 101.687C23.469 110.698 28.6218 118.882 35.3764 125.638C36.2157 126.479 36.7871 127.549 37.0183 128.715C37.2495 129.88 37.1302 131.088 36.6755 132.185C36.2208 133.283 35.451 134.221 34.4634 134.881C33.4758 135.542 32.3146 135.894 31.1266 135.895L31.111 135.898Z" fill="url(#paint1_linear_2040_113)"/>
<path style="mix-blend-mode:screen" opacity="0.8" d="M3.6914 86.4411C3.6914 65.4326 12.0879 45.6793 27.3291 30.8253C42.5702 15.9714 62.8543 7.78719 84.3999 7.78719C101.643 7.78719 118.058 13.0268 131.738 22.7255C120.606 12.8546 106.86 6.40964 92.1531 4.16561C77.4457 1.92158 62.4032 3.97405 48.8347 10.0762C35.2661 16.1783 23.7493 26.0703 15.6693 38.5625C7.58919 51.0547 3.28994 65.6151 3.28857 80.4926C3.28998 83.2913 3.44111 86.0879 3.74133 88.8704C3.7101 88.0711 3.6914 87.253 3.6914 86.4411Z" fill="url(#paint2_radial_2040_113)"/>
<path style="mix-blend-mode:multiply" opacity="0.5" d="M137.423 23.5803C124.255 10.4106 106.927 2.2143 88.3929 0.388073C69.8586 -1.43815 51.2645 3.21865 35.7788 13.565C20.2931 23.9114 8.87402 39.3071 3.46712 57.129C-1.93978 74.9509 -0.999879 94.0962 6.12666 111.303C13.2532 128.509 26.1254 142.713 42.5501 151.492C58.9747 160.272 77.9356 163.085 96.2018 159.452C114.468 155.82 130.91 145.965 142.725 131.569C154.54 117.173 160.998 99.1253 160.999 80.5012C161.028 69.926 158.959 59.4499 154.912 49.6795C150.866 39.909 144.921 31.0382 137.423 23.5803ZM134.691 131.811C119.968 146.009 100.399 153.828 79.5813 153.828C58.7632 153.828 39.1911 146.022 24.4714 131.811C9.75171 117.6 1.65183 98.7369 1.65183 78.6558C1.65183 58.5747 9.77046 39.6989 24.4808 25.5007C39.1911 11.3024 58.7726 3.48356 79.5907 3.48356C100.409 3.48356 119.978 11.2899 134.701 25.5007C149.423 39.7114 157.526 58.5778 157.526 78.6558C157.526 98.7338 149.411 117.613 134.691 131.811Z" fill="url(#paint3_linear_2040_113)"/>
<path style="mix-blend-mode:multiply" d="M135.396 133.154C120.677 147.353 100.499 155.481 79.6838 155.481C59.4685 155.481 38.513 147.493 25.748 134.997C25.748 136.533 25.7813 138.07 25.848 139.609C36.9605 149.885 50.7452 156.821 65.6204 159.62C80.4955 162.418 95.8582 160.966 109.946 155.43C124.033 149.894 136.274 140.499 145.265 128.322C154.255 116.145 159.63 101.681 160.773 86.5878C159.98 85.3741 159.165 84.1771 158.328 82.9968C156.355 105.966 149.348 119.674 135.396 133.154Z" fill="url(#paint4_radial_2040_113)"/>
<path style="mix-blend-mode:multiply" opacity="0.3" d="M80.7342 145.841C64.4626 145.841 49.1652 139.233 37.643 127.237C26.1208 115.24 19.8008 99.2897 19.8008 82.3218C19.8008 65.3538 26.1364 49.407 37.643 37.4101C49.1496 25.4133 63.9974 20.0769 80.269 20.0769C96.5406 20.0769 112.3 25.4258 123.807 37.4101C135.313 49.3945 141.649 65.357 141.649 82.3218C141.649 99.2866 136.675 115.636 125.168 127.633C113.662 139.63 97.0027 145.841 80.7342 145.841Z" fill="url(#paint5_linear_2040_113)"/>
<path style="mix-blend-mode:multiply" opacity="0.5" d="M80.7358 143.792C64.9919 143.792 50.1942 137.401 39.0623 125.794C27.9304 114.187 21.804 98.7558 21.804 82.3437C21.804 65.9316 27.9335 50.4937 39.0623 38.8934C50.1911 27.2932 64.5579 22.1254 80.2987 22.1254C96.0394 22.1254 111.274 27.2869 122.406 38.8934C133.538 50.5 139.671 65.9316 139.671 82.3437C139.671 98.7558 134.856 114.572 123.727 126.178C112.598 137.785 96.4766 143.792 80.7358 143.792Z" fill="url(#paint6_linear_2040_113)"/>
<path d="M80.5008 137.238C67.3745 137.239 54.6541 132.688 44.5072 124.36C34.3603 116.033 27.4146 104.445 24.8536 91.5713C22.2926 78.6972 24.2748 65.3334 30.4623 53.7569C36.6499 42.1804 46.6601 33.1075 58.7872 28.0842C70.9143 23.0608 84.408 22.3977 96.9692 26.2079C109.53 30.0182 120.382 38.0659 127.674 48.98C134.967 59.8941 138.25 72.9992 136.964 86.0624C135.677 99.1255 129.901 111.338 120.619 120.62C115.363 125.906 109.111 130.096 102.225 132.948C95.3384 135.801 87.9546 137.259 80.5008 137.238Z" fill="url(#paint7_linear_2040_113)"/>
<path style="mix-blend-mode:screen" opacity="0.6" d="M78.1961 118.74C66.3304 119.343 55.1611 115.883 46.7676 108.995C38.3742 102.107 33.7498 92.6235 33.7498 82.2816C33.7498 71.9397 38.3711 61.985 46.7676 54.2474C55.1642 46.5097 66.3242 41.9195 78.1961 41.3169C90.068 40.7142 101.231 44.1771 109.625 51.0623C118.018 57.9476 122.642 67.437 122.642 77.7758C122.642 88.1145 118.021 98.0723 109.625 105.81C101.228 113.548 90.068 118.141 78.1961 118.74Z" fill="url(#paint8_linear_2040_113)"/>
<path style="mix-blend-mode:multiply" opacity="0.3" d="M71.596 98.7313C55.0871 98.7313 39.5649 93.423 27.8491 83.7837C29.5977 93.4355 34.5095 102.328 42.1129 109.389C51.7741 118.363 64.5703 124.127 78.2346 124.127C91.8988 124.127 104.798 118.363 114.456 109.389C124.114 100.414 129.444 88.4675 129.444 75.7868C129.446 73.0372 129.194 70.2934 128.692 67.5901C121.672 92.5861 88.2111 98.7313 71.596 98.7313Z" fill="url(#paint9_linear_2040_113)"/>
<path style="mix-blend-mode:multiply" opacity="0.4" d="M120.621 40.3802C111.339 31.0979 99.1254 25.3212 86.0616 24.0343C72.9978 22.7475 59.8919 26.0301 48.9771 33.323C38.0622 40.6158 30.0137 51.4676 26.203 64.0294C22.3922 76.5911 23.0549 90.0856 28.0783 102.213C33.1016 114.341 42.1747 124.352 53.7516 130.54C65.3286 136.729 78.693 138.711 91.5679 136.151C104.443 133.59 116.031 126.644 124.359 116.497C132.687 106.35 137.239 93.6289 137.239 80.5019C137.26 73.0476 135.802 65.6633 132.949 58.7763C130.097 51.8894 125.906 45.6367 120.621 40.3802V40.3802ZM115.119 110.61C105.389 119.933 92.4525 125.07 78.6914 125.07C64.9303 125.07 51.9967 119.933 42.2669 110.61C32.537 101.286 26.8384 89.3761 26.8384 76.199C26.8384 63.0218 32.1967 50.6159 41.9265 41.2951C51.6564 31.9743 64.5931 26.8346 78.3511 26.8346C92.109 26.8346 105.049 31.9712 114.779 41.2951C124.509 50.6191 129.867 63.0125 129.867 76.199C129.867 89.3855 124.849 101.286 115.119 110.61Z" fill="url(#paint10_linear_2040_113)"/>
<path style="mix-blend-mode:multiply" d="M117.269 113.273C107.542 122.597 94.5337 128.636 79.1739 128.327C65.416 128.052 42.1998 121.807 27.8611 101.326C28.2826 104.655 35.6456 117.164 41.7564 121.935C49.834 129.489 59.9431 134.517 70.8406 136.401C81.7381 138.286 92.9487 136.944 103.094 132.541C113.239 128.138 121.876 120.866 127.942 111.62C134.009 102.373 137.241 91.5549 137.241 80.4956C137.241 78.7054 137.159 76.9297 136.994 75.1686C136.966 71.2779 134.371 61.3076 132.663 57.9633C137.238 88.352 126.999 103.949 117.269 113.273Z" fill="url(#paint11_radial_2040_113)"/>
<path d="M65.548 32.7767C61.7541 31.8399 54.694 36.4613 54.4879 39.1248C54.2193 42.6221 58.9937 41.9945 64.1147 39.3309C68.199 37.2076 68.0085 33.3887 65.548 32.7767Z" fill="#E5FFFF"/>
<path d="M47.6776 43.7807C44.936 43.9836 42.9126 46.1319 43.3623 47.9524C43.9524 50.3411 46.5254 49.9664 48.4864 48.0242C50.7846 45.7541 49.4513 43.6495 47.6776 43.7807Z" fill="#E5FFFF"/>
<path style="mix-blend-mode:multiply" opacity="0.2" d="M103.384 68.9853H71.0745C69.7921 68.984 68.5237 68.7176 67.3491 68.2028C66.1744 67.688 65.1189 66.936 64.2487 65.9939C63.3792 66.9361 62.3242 67.6882 61.15 68.203C59.9759 68.7178 58.7079 68.9841 57.4259 68.9853H55.8646C54.6297 69.0079 53.4027 68.7843 52.2553 68.3274C51.1078 67.8704 50.0629 67.1894 49.1816 66.3241C48.3003 65.4589 47.6003 64.4266 47.1224 63.2877C46.6446 62.1488 46.3984 60.9261 46.3984 59.691C46.3984 58.456 46.6446 57.2333 47.1224 56.0944C47.6003 54.9555 48.3003 53.9232 49.1816 53.0579C50.0629 52.1926 51.1078 51.5116 52.2553 51.0547C53.4027 50.5978 54.6297 50.3741 55.8646 50.3968H57.4259C58.7079 50.3979 59.9759 50.6643 61.15 51.1791C62.3242 51.6939 63.3792 52.446 64.2487 53.3882C65.1189 52.4461 66.1744 51.694 67.3491 51.1793C68.5237 50.6645 69.7921 50.3981 71.0745 50.3968H103.384C104.618 50.3741 105.845 50.5978 106.993 51.0547C108.14 51.5116 109.185 52.1926 110.067 53.0579C110.948 53.9232 111.648 54.9555 112.126 56.0944C112.604 57.2333 112.85 58.456 112.85 59.691C112.85 60.9261 112.604 62.1488 112.126 63.2877C111.648 64.4266 110.948 65.4589 110.067 66.3241C109.185 67.1894 108.14 67.8704 106.993 68.3274C105.845 68.7843 104.618 69.0079 103.384 68.9853V68.9853Z" fill="url(#paint12_linear_2040_113)"/>
<path style="mix-blend-mode:multiply" opacity="0.3" d="M103.386 51.8715H71.0768C69.6853 51.8728 68.3194 52.245 67.1197 52.9497C65.9199 53.6544 64.9296 54.6662 64.2509 55.8808C63.5728 54.6662 62.5832 53.6544 61.3839 52.9497C60.1846 52.2449 58.8191 51.8727 57.4281 51.8715H55.8668C53.7927 51.8715 51.8036 52.6954 50.337 54.162C48.8703 55.6286 48.0464 57.6178 48.0464 59.6919C48.0464 61.766 48.8703 63.7552 50.337 65.2218C51.8036 66.6884 53.7927 67.5123 55.8668 67.5123H57.4281C58.8176 67.5145 60.1825 67.1459 61.3819 66.4443C62.5813 65.7428 63.5717 64.7339 64.2509 63.5217C64.9298 64.7359 65.9202 65.7472 67.12 66.4514C68.3198 67.1556 69.6856 67.5272 71.0768 67.5279H103.386C105.46 67.5279 107.449 66.704 108.916 65.2374C110.382 63.7708 111.206 61.7816 111.206 59.7075C111.206 57.6334 110.382 55.6442 108.916 54.1776C107.449 52.711 105.46 51.8871 103.386 51.8871V51.8715Z" fill="url(#paint13_linear_2040_113)"/>
<path style="mix-blend-mode:multiply" opacity="0.4" d="M103.387 66.0349H71.0776C70.2327 66.0536 69.3926 65.9034 68.6066 65.593C67.8205 65.2827 67.1044 64.8184 66.5003 64.2275C65.8961 63.6366 65.4161 62.931 65.0883 62.152C64.7606 61.3731 64.5918 60.5365 64.5918 59.6914C64.5918 58.8463 64.7606 58.0097 65.0883 57.2308C65.4161 56.4518 65.8961 55.7462 66.5003 55.1553C67.1044 54.5644 67.8205 54.1001 68.6066 53.7898C69.3926 53.4794 70.2327 53.3292 71.0776 53.3479H103.387C104.231 53.3292 105.072 53.4794 105.858 53.7898C106.644 54.1001 107.36 54.5644 107.964 55.1553C108.568 55.7462 109.048 56.4518 109.376 57.2308C109.704 58.0097 109.872 58.8463 109.872 59.6914C109.872 60.5365 109.704 61.3731 109.376 62.152C109.048 62.931 108.568 63.6366 107.964 64.2275C107.36 64.8184 106.644 65.2827 105.858 65.593C105.072 65.9034 104.231 66.0536 103.387 66.0349V66.0349Z" fill="url(#paint14_linear_2040_113)"/>
<path d="M103.384 65.2977H71.0747C70.305 65.3522 69.5324 65.2477 68.8049 64.9906C68.0774 64.7336 67.4107 64.3295 66.8461 63.8035C66.2816 63.2776 65.8314 62.641 65.5236 61.9335C65.2158 61.226 65.0569 60.4627 65.0569 59.6911C65.0569 58.9195 65.2158 58.1563 65.5236 57.4487C65.8314 56.7412 66.2816 56.1047 66.8461 55.5787C67.4107 55.0528 68.0774 54.6487 68.8049 54.3916C69.5324 54.1346 70.305 54.0301 71.0747 54.0846H103.384C104.153 54.0301 104.926 54.1346 105.653 54.3916C106.381 54.6487 107.048 55.0528 107.612 55.5787C108.177 56.1047 108.627 56.7412 108.935 57.4487C109.243 58.1563 109.401 58.9195 109.401 59.6911C109.401 60.4627 109.243 61.226 108.935 61.9335C108.627 62.641 108.177 63.2776 107.612 63.8035C107.048 64.3295 106.381 64.7336 105.653 64.9906C104.926 65.2477 104.153 65.3522 103.384 65.2977V65.2977Z" fill="url(#paint15_linear_2040_113)"/>
<path style="mix-blend-mode:screen" opacity="0.5" d="M93.8303 63.6739H72.775C70.7547 63.6739 68.825 62.1407 68.825 60.2391C68.825 58.3375 70.7547 56.8043 72.775 56.8043H93.8303C95.8475 56.8043 97.4837 58.3406 97.4837 60.2391C97.4837 62.1376 95.8475 63.6739 93.8303 63.6739Z" fill="url(#paint16_linear_2040_113)"/>
<path style="mix-blend-mode:multiply" d="M103.384 54.0846H71.0747C70.305 54.0301 69.5324 54.1346 68.8049 54.3916C68.0774 54.6487 67.4107 55.0528 66.8461 55.5787C66.2816 56.1047 65.8314 56.7412 65.5236 57.4487C65.2158 58.1563 65.0569 58.9195 65.0569 59.6911C65.0569 60.4627 65.2158 61.226 65.5236 61.9335C65.8314 62.641 66.2816 63.2776 66.8461 63.8035C67.4107 64.3295 68.0774 64.7336 68.8049 64.9906C69.5324 65.2477 70.305 65.3522 71.0747 65.2977H103.384C104.153 65.3522 104.926 65.2477 105.653 64.9906C106.381 64.7336 107.048 64.3295 107.612 63.8035C108.177 63.2776 108.627 62.641 108.935 61.9335C109.243 61.226 109.401 60.4627 109.401 59.6911C109.401 58.9195 109.243 58.1563 108.935 57.4487C108.627 56.7412 108.177 56.1047 107.612 55.5787C107.048 55.0528 106.381 54.6487 105.653 54.3916C104.926 54.1346 104.153 54.0301 103.384 54.0846V54.0846ZM102.594 64.67H71.4588C68.4767 64.67 66.0567 62.5654 66.0567 59.9675C66.0567 57.3695 68.4767 55.5616 71.4588 55.5616H102.594C105.576 55.5616 107.699 57.3695 107.699 59.9675C107.699 62.5654 105.576 64.67 102.594 64.67Z" fill="url(#paint17_linear_2040_113)"/>
<path style="mix-blend-mode:multiply" opacity="0.4" d="M57.4264 66.0349H55.8652C55.0203 66.0536 54.1802 65.9034 53.3941 65.593C52.6081 65.2827 51.892 64.8184 51.2878 64.2275C50.6837 63.6366 50.2037 62.931 49.8759 62.152C49.5482 61.3731 49.3794 60.5365 49.3794 59.6914C49.3794 58.8463 49.5482 58.0097 49.8759 57.2308C50.2037 56.4518 50.6837 55.7462 51.2878 55.1553C51.892 54.5644 52.6081 54.1001 53.3941 53.7898C54.1802 53.4794 55.0203 53.3292 55.8652 53.3479H57.4264C58.2713 53.3292 59.1114 53.4794 59.8975 53.7898C60.6835 54.1001 61.3996 54.5644 62.0038 55.1553C62.6079 55.7462 63.0879 56.4518 63.4157 57.2308C63.7434 58.0097 63.9122 58.8463 63.9122 59.6914C63.9122 60.5365 63.7434 61.3731 63.4157 62.152C63.0879 62.931 62.6079 63.6366 62.0038 64.2275C61.3996 64.8184 60.6835 65.2827 59.8975 65.593C59.1114 65.9034 58.2713 66.0536 57.4264 66.0349V66.0349Z" fill="url(#paint18_linear_2040_113)"/>
<path d="M57.4272 65.2981H55.8659C55.0963 65.3526 54.3236 65.2481 53.5962 64.9911C52.8687 64.734 52.2019 64.3299 51.6374 63.804C51.0728 63.278 50.6226 62.6415 50.3148 61.934C50.007 61.2265 49.8481 60.4631 49.8481 59.6916C49.8481 58.92 50.007 58.1567 50.3148 57.4492C50.6226 56.7417 51.0728 56.1052 51.6374 55.5792C52.2019 55.0533 52.8687 54.6492 53.5962 54.3921C54.3236 54.135 55.0963 54.0305 55.8659 54.0851H57.4272C58.8456 54.1855 60.1731 54.8199 61.1424 55.8602C62.1117 56.9006 62.6506 58.2697 62.6506 59.6916C62.6506 61.1135 62.1117 62.4826 61.1424 63.5229C60.1731 64.5633 58.8456 65.1976 57.4272 65.2981V65.2981Z" fill="url(#paint19_linear_2040_113)"/>
<path style="mix-blend-mode:screen" opacity="0.5" d="M56.6376 63.4716H55.5634C55.0592 63.4861 54.5571 63.3993 54.0869 63.2163C53.6168 63.0334 53.1882 62.758 52.8263 62.4064C52.4645 62.0549 52.1769 61.6343 51.9805 61.1696C51.7841 60.7049 51.6829 60.2056 51.6829 59.7011C51.6829 59.1966 51.7841 58.6972 51.9805 58.2326C52.1769 57.7679 52.4645 57.3473 52.8263 56.9958C53.1882 56.6442 53.6168 56.3688 54.0869 56.1858C54.5571 56.0029 55.0592 55.9161 55.5634 55.9306H56.6376C57.1419 55.9161 57.6439 56.0029 58.1141 56.1858C58.5842 56.3688 59.0129 56.6442 59.3747 56.9958C59.7365 57.3473 60.0241 57.7679 60.2205 58.2326C60.417 58.6972 60.5182 59.1966 60.5182 59.7011C60.5182 60.2056 60.417 60.7049 60.2205 61.1696C60.0241 61.6343 59.7365 62.0549 59.3747 62.4064C59.0129 62.758 58.5842 63.0334 58.1141 63.2163C57.6439 63.3993 57.1419 63.4861 56.6376 63.4716V63.4716Z" fill="url(#paint20_linear_2040_113)"/>
<path style="mix-blend-mode:multiply" d="M57.4272 54.0851H55.8659C55.0963 54.0305 54.3236 54.135 53.5962 54.3921C52.8687 54.6492 52.2019 55.0533 51.6374 55.5792C51.0728 56.1052 50.6226 56.7417 50.3148 57.4492C50.007 58.1567 49.8481 58.92 49.8481 59.6916C49.8481 60.4631 50.007 61.2265 50.3148 61.934C50.6226 62.6415 51.0728 63.278 51.6374 63.804C52.2019 64.3299 52.8687 64.734 53.5962 64.9911C54.3236 65.2481 55.0963 65.3526 55.8659 65.2981H57.4272C58.8456 65.1976 60.1731 64.5633 61.1424 63.5229C62.1117 62.4826 62.6506 61.1135 62.6506 59.6916C62.6506 58.2697 62.1117 56.9006 61.1424 55.8602C60.1731 54.8199 58.8456 54.1855 57.4272 54.0851V54.0851ZM57.1149 64.7517H55.7785C55.1605 64.7517 54.5486 64.6299 53.9777 64.3935C53.4068 64.157 52.888 63.8104 52.4511 63.3734C52.0141 62.9365 51.6675 62.4177 51.431 61.8468C51.1945 61.2759 51.0728 60.6639 51.0728 60.046C51.0728 59.428 51.1945 58.8161 51.431 58.2452C51.6675 57.6743 52.0141 57.1555 52.4511 56.7186C52.888 56.2816 53.4068 55.935 53.9777 55.6985C54.5486 55.462 55.1605 55.3403 55.7785 55.3403H57.1149C57.7329 55.3403 58.3448 55.462 58.9157 55.6985C59.4867 55.935 60.0054 56.2816 60.4424 56.7186C60.8793 57.1555 61.2259 57.6743 61.4624 58.2452C61.6989 58.8161 61.8206 59.428 61.8206 60.046C61.8206 60.6639 61.6989 61.2759 61.4624 61.8468C61.2259 62.4177 60.8793 62.9365 60.4424 63.3734C60.0054 63.8104 59.4867 64.157 58.9157 64.3935C58.3448 64.6299 57.7329 64.7517 57.1149 64.7517V64.7517Z" fill="url(#paint21_linear_2040_113)"/>
<path style="mix-blend-mode:multiply" opacity="0.2" d="M103.384 88.9047H71.0745C69.7921 88.9034 68.5237 88.637 67.3491 88.1222C66.1744 87.6074 65.1189 86.8554 64.2487 85.9133C63.3792 86.8555 62.3242 87.6076 61.15 88.1224C59.9759 88.6372 58.7079 88.9035 57.4259 88.9047H55.8646C54.6297 88.9273 53.4027 88.7037 52.2553 88.2468C51.1078 87.7898 50.0629 87.1088 49.1816 86.2435C48.3003 85.3782 47.6003 84.346 47.1224 83.2071C46.6446 82.0682 46.3984 80.8455 46.3984 79.6104C46.3984 78.3754 46.6446 77.1526 47.1224 76.0138C47.6003 74.8749 48.3003 73.8426 49.1816 72.9773C50.0629 72.112 51.1078 71.431 52.2553 70.9741C53.4027 70.5172 54.6297 70.2935 55.8646 70.3162H57.4259C58.7079 70.3173 59.9759 70.5837 61.15 71.0985C62.3242 71.6133 63.3792 72.3654 64.2487 73.3076C65.1189 72.3655 66.1744 71.6134 67.3491 71.0987C68.5237 70.5839 69.7921 70.3175 71.0745 70.3162H103.384C104.618 70.2935 105.845 70.5172 106.993 70.9741C108.14 71.431 109.185 72.112 110.067 72.9773C110.948 73.8426 111.648 74.8749 112.126 76.0138C112.604 77.1526 112.85 78.3754 112.85 79.6104C112.85 80.8455 112.604 82.0682 112.126 83.2071C111.648 84.346 110.948 85.3782 110.067 86.2435C109.185 87.1088 108.14 87.7898 106.993 88.2468C105.845 88.7037 104.618 88.9273 103.384 88.9047V88.9047Z" fill="url(#paint22_linear_2040_113)"/>
<path style="mix-blend-mode:multiply" opacity="0.3" d="M103.386 71.7895H71.0768C69.6853 71.7909 68.3194 72.1631 67.1197 72.8678C65.9199 73.5725 64.9296 74.5842 64.2509 75.7989C63.5728 74.5843 62.5832 73.5724 61.3839 72.8677C60.1846 72.1629 58.8191 71.7908 57.4281 71.7895H55.8668C53.7927 71.7895 51.8036 72.6134 50.337 74.08C48.8703 75.5467 48.0464 77.5358 48.0464 79.6099C48.0464 81.684 48.8703 83.6732 50.337 85.1398C51.8036 86.6064 53.7927 87.4303 55.8668 87.4303H57.4281C58.8191 87.4291 60.1846 87.0569 61.3839 86.3521C62.5832 85.6474 63.5728 84.6356 64.2509 83.421C64.9296 84.6356 65.9199 85.6474 67.1197 86.3521C68.3194 87.0568 69.6853 87.429 71.0768 87.4303H103.386C105.46 87.4303 107.449 86.6064 108.916 85.1398C110.382 83.6732 111.206 81.684 111.206 79.6099C111.206 77.5358 110.382 75.5467 108.916 74.08C107.449 72.6134 105.46 71.7895 103.386 71.7895V71.7895Z" fill="url(#paint23_linear_2040_113)"/>
<path style="mix-blend-mode:multiply" opacity="0.4" d="M103.387 85.9538H71.0776C70.2327 85.9725 69.3926 85.8223 68.6066 85.5119C67.8205 85.2016 67.1044 84.7373 66.5003 84.1464C65.8961 83.5555 65.4161 82.8499 65.0883 82.0709C64.7606 81.292 64.5918 80.4554 64.5918 79.6103C64.5918 78.7653 64.7606 77.9287 65.0883 77.1497C65.4161 76.3708 65.8961 75.6651 66.5003 75.0742C67.1044 74.4833 67.8205 74.0191 68.6066 73.7087C69.3926 73.3983 70.2327 73.2481 71.0776 73.2669H103.387C104.231 73.2481 105.072 73.3983 105.858 73.7087C106.644 74.0191 107.36 74.4833 107.964 75.0742C108.568 75.6651 109.048 76.3708 109.376 77.1497C109.704 77.9287 109.872 78.7653 109.872 79.6103C109.872 80.4554 109.704 81.292 109.376 82.0709C109.048 82.8499 108.568 83.5555 107.964 84.1464C107.36 84.7373 106.644 85.2016 105.858 85.5119C105.072 85.8223 104.231 85.9725 103.387 85.9538V85.9538Z" fill="url(#paint24_linear_2040_113)"/>
<path d="M103.384 85.2166H71.0747C70.305 85.2711 69.5324 85.1666 68.8049 84.9096C68.0774 84.6525 67.4107 84.2484 66.8461 83.7225C66.2816 83.1965 65.8314 82.56 65.5236 81.8525C65.2158 81.1449 65.0569 80.3817 65.0569 79.6101C65.0569 78.8385 65.2158 78.0752 65.5236 77.3677C65.8314 76.6602 66.2816 76.0236 66.8461 75.4977C67.4107 74.9717 68.0774 74.5676 68.8049 74.3106C69.5324 74.0535 70.305 73.949 71.0747 74.0035H103.384C104.153 73.949 104.926 74.0535 105.653 74.3106C106.381 74.5676 107.048 74.9717 107.612 75.4977C108.177 76.0236 108.627 76.6602 108.935 77.3677C109.243 78.0752 109.401 78.8385 109.401 79.6101C109.401 80.3817 109.243 81.1449 108.935 81.8525C108.627 82.56 108.177 83.1965 107.612 83.7225C107.048 84.2484 106.381 84.6525 105.653 84.9096C104.926 85.1666 104.153 85.2711 103.384 85.2166V85.2166Z" fill="url(#paint25_linear_2040_113)"/>
<path style="mix-blend-mode:screen" opacity="0.5" d="M93.8303 82.709H72.775C70.7547 82.709 68.825 81.3694 68.825 79.7207C68.825 78.072 70.7547 76.7324 72.775 76.7324H93.8303C95.8475 76.7324 97.4837 78.0688 97.4837 79.7207C97.4837 81.3725 95.8475 82.709 93.8303 82.709Z" fill="url(#paint26_linear_2040_113)"/>
<path style="mix-blend-mode:multiply" d="M103.384 74.0035H71.0747C70.305 73.949 69.5324 74.0535 68.8049 74.3106C68.0774 74.5676 67.4107 74.9717 66.8461 75.4977C66.2816 76.0236 65.8314 76.6602 65.5236 77.3677C65.2158 78.0752 65.0569 78.8385 65.0569 79.6101C65.0569 80.3817 65.2158 81.1449 65.5236 81.8525C65.8314 82.56 66.2816 83.1965 66.8461 83.7225C67.4107 84.2484 68.0774 84.6525 68.8049 84.9096C69.5324 85.1666 70.305 85.2711 71.0747 85.2166H103.384C104.153 85.2711 104.926 85.1666 105.653 84.9096C106.381 84.6525 107.048 84.2484 107.612 83.7225C108.177 83.1965 108.627 82.56 108.935 81.8525C109.243 81.1449 109.401 80.3817 109.401 79.6101C109.401 78.8385 109.243 78.0752 108.935 77.3677C108.627 76.6602 108.177 76.0236 107.612 75.4977C107.048 74.9717 106.381 74.5676 105.653 74.3106C104.926 74.0535 104.153 73.949 103.384 74.0035V74.0035ZM102.594 84.589H71.4588C68.4767 84.589 66.0567 82.4844 66.0567 79.8864C66.0567 77.2885 68.4767 75.4774 71.4588 75.4774H102.594C105.576 75.4774 107.699 77.2885 107.699 79.8864C107.699 82.4844 105.576 84.589 102.594 84.589Z" fill="url(#paint27_linear_2040_113)"/>
<path style="mix-blend-mode:multiply" opacity="0.4" d="M57.4264 85.9538H55.8652C55.0203 85.9725 54.1802 85.8223 53.3941 85.5119C52.6081 85.2016 51.892 84.7373 51.2878 84.1464C50.6837 83.5555 50.2037 82.8499 49.8759 82.0709C49.5482 81.292 49.3794 80.4554 49.3794 79.6103C49.3794 78.7653 49.5482 77.9287 49.8759 77.1497C50.2037 76.3708 50.6837 75.6651 51.2878 75.0742C51.892 74.4833 52.6081 74.0191 53.3941 73.7087C54.1802 73.3983 55.0203 73.2481 55.8652 73.2669H57.4264C58.2713 73.2481 59.1114 73.3983 59.8975 73.7087C60.6835 74.0191 61.3996 74.4833 62.0038 75.0742C62.6079 75.6651 63.0879 76.3708 63.4157 77.1497C63.7434 77.9287 63.9122 78.7653 63.9122 79.6103C63.9122 80.4554 63.7434 81.292 63.4157 82.0709C63.0879 82.8499 62.6079 83.5555 62.0038 84.1464C61.3996 84.7373 60.6835 85.2016 59.8975 85.5119C59.1114 85.8223 58.2713 85.9725 57.4264 85.9538V85.9538Z" fill="url(#paint28_linear_2040_113)"/>
<path d="M57.4272 85.2166H55.8659C55.0963 85.2711 54.3236 85.1666 53.5962 84.9096C52.8687 84.6525 52.2019 84.2484 51.6374 83.7225C51.0728 83.1965 50.6226 82.56 50.3148 81.8525C50.007 81.1449 49.8481 80.3817 49.8481 79.6101C49.8481 78.8385 50.007 78.0752 50.3148 77.3677C50.6226 76.6602 51.0728 76.0236 51.6374 75.4977C52.2019 74.9717 52.8687 74.5676 53.5962 74.3106C54.3236 74.0535 55.0963 73.949 55.8659 74.0035H57.4272C58.8456 74.104 60.1731 74.7383 61.1424 75.7787C62.1117 76.8191 62.6506 78.1882 62.6506 79.6101C62.6506 81.032 62.1117 82.4011 61.1424 83.4414C60.1731 84.4818 58.8456 85.1161 57.4272 85.2166V85.2166Z" fill="url(#paint29_linear_2040_113)"/>
<path style="mix-blend-mode:screen" opacity="0.5" d="M56.6367 83.3872H55.5626C53.4143 83.3872 51.6719 81.7759 51.6719 79.7838C51.6719 77.7916 53.4143 76.1803 55.5626 76.1803H56.6367C58.7851 76.1803 60.5243 77.7947 60.5243 79.7838C60.5243 81.7728 58.7944 83.3872 56.6367 83.3872Z" fill="url(#paint30_linear_2040_113)"/>
<path style="mix-blend-mode:multiply" d="M57.4272 74.0035H55.8659C55.0963 73.949 54.3236 74.0535 53.5962 74.3106C52.8687 74.5676 52.2019 74.9717 51.6374 75.4977C51.0728 76.0236 50.6226 76.6602 50.3148 77.3677C50.007 78.0752 49.8481 78.8385 49.8481 79.6101C49.8481 80.3817 50.007 81.1449 50.3148 81.8525C50.6226 82.56 51.0728 83.1965 51.6374 83.7225C52.2019 84.2484 52.8687 84.6525 53.5962 84.9096C54.3236 85.1666 55.0963 85.2711 55.8659 85.2166H57.4272C58.8456 85.1161 60.1731 84.4818 61.1424 83.4414C62.1117 82.4011 62.6506 81.032 62.6506 79.6101C62.6506 78.1882 62.1117 76.8191 61.1424 75.7787C60.1731 74.7383 58.8456 74.104 57.4272 74.0035V74.0035ZM57.1149 84.6702H55.7785C54.5304 84.6702 53.3336 84.1744 52.4511 83.2919C51.5686 82.4094 51.0728 81.2125 51.0728 79.9645C51.0728 78.7165 51.5686 77.5196 52.4511 76.6371C53.3336 75.7546 54.5304 75.2588 55.7785 75.2588H57.1149C58.363 75.2588 59.5599 75.7546 60.4424 76.6371C61.3248 77.5196 61.8206 78.7165 61.8206 79.9645C61.8206 81.2125 61.3248 82.4094 60.4424 83.2919C59.5599 84.1744 58.363 84.6702 57.1149 84.6702V84.6702Z" fill="url(#paint31_linear_2040_113)"/>
<path style="mix-blend-mode:multiply" opacity="0.2" d="M103.384 110.15H71.0745C69.7921 110.149 68.5237 109.883 67.3491 109.368C66.1744 108.853 65.1189 108.101 64.2487 107.159C63.3792 108.101 62.3242 108.853 61.15 109.368C59.9759 109.883 58.7079 110.149 57.4259 110.15H55.8646C54.6297 110.173 53.4027 109.949 52.2553 109.492C51.1078 109.035 50.0629 108.354 49.1816 107.489C48.3003 106.624 47.6003 105.591 47.1224 104.453C46.6446 103.314 46.3984 102.091 46.3984 100.856C46.3984 99.6208 46.6446 98.3982 47.1224 97.2593C47.6003 96.1204 48.3003 95.0881 49.1816 94.2228C50.0629 93.3575 51.1078 92.6765 52.2553 92.2196C53.4027 91.7627 54.6297 91.539 55.8646 91.5617H57.4259C58.7079 91.5629 59.9759 91.8292 61.15 92.344C62.3242 92.8588 63.3792 93.6109 64.2487 94.5531C65.1189 93.611 66.1744 92.8589 67.3491 92.3441C68.5237 91.8294 69.7921 91.563 71.0745 91.5617H103.384C104.618 91.539 105.845 91.7627 106.993 92.2196C108.14 92.6765 109.185 93.3575 110.067 94.2228C110.948 95.0881 111.648 96.1204 112.126 97.2593C112.604 98.3982 112.85 99.6208 112.85 100.856C112.85 102.091 112.604 103.314 112.126 104.453C111.648 105.591 110.948 106.624 110.067 107.489C109.185 108.354 108.14 109.035 106.993 109.492C105.845 109.949 104.618 110.173 103.384 110.15V110.15Z" fill="url(#paint32_linear_2040_113)"/>
<path style="mix-blend-mode:multiply" opacity="0.3" d="M103.386 93.0359H71.0768C69.6857 93.0373 68.3201 93.4092 67.1205 94.1133C65.9208 94.8174 64.9303 95.8283 64.2509 97.0422C63.5722 95.8284 62.5823 94.8174 61.3831 94.1132C60.1839 93.4091 58.8187 93.0372 57.4281 93.0359H55.8668C53.7927 93.0359 51.8036 93.8599 50.337 95.3265C48.8703 96.7931 48.0464 98.7822 48.0464 100.856C48.0464 102.93 48.8703 104.92 50.337 106.386C51.8036 107.853 53.7927 108.677 55.8668 108.677H57.4281C58.8191 108.676 60.1846 108.303 61.3839 107.599C62.5832 106.894 63.5728 105.882 64.2509 104.667C64.9296 105.882 65.9199 106.894 67.1197 107.599C68.3194 108.303 69.6853 108.675 71.0768 108.677H103.386C105.46 108.677 107.449 107.853 108.916 106.386C110.382 104.92 111.206 102.93 111.206 100.856C111.206 98.7822 110.382 96.7931 108.916 95.3265C107.449 93.8599 105.46 93.0359 103.386 93.0359V93.0359Z" fill="url(#paint33_linear_2040_113)"/>
<path style="mix-blend-mode:multiply" opacity="0.4" d="M103.387 107.199H71.0776C70.2327 107.218 69.3926 107.068 68.6066 106.757C67.8205 106.447 67.1044 105.983 66.5003 105.392C65.8961 104.801 65.4161 104.095 65.0883 103.316C64.7606 102.537 64.5918 101.701 64.5918 100.856C64.5918 100.011 64.7606 99.1742 65.0883 98.3952C65.4161 97.6163 65.8961 96.9107 66.5003 96.3198C67.1044 95.7289 67.8205 95.2646 68.6066 94.9542C69.3926 94.6439 70.2327 94.4936 71.0776 94.5124H103.387C104.231 94.4936 105.072 94.6439 105.858 94.9542C106.644 95.2646 107.36 95.7289 107.964 96.3198C108.568 96.9107 109.048 97.6163 109.376 98.3952C109.704 99.1742 109.872 100.011 109.872 100.856C109.872 101.701 109.704 102.537 109.376 103.316C109.048 104.095 108.568 104.801 107.964 105.392C107.36 105.983 106.644 106.447 105.858 106.757C105.072 107.068 104.231 107.218 103.387 107.199V107.199Z" fill="url(#paint34_linear_2040_113)"/>
<path d="M103.384 106.462H71.0747C70.305 106.517 69.5324 106.412 68.8049 106.155C68.0774 105.898 67.4107 105.494 66.8461 104.968C66.2816 104.442 65.8314 103.805 65.5236 103.098C65.2158 102.39 65.0569 101.627 65.0569 100.856C65.0569 100.084 65.2158 99.3207 65.5236 98.6132C65.8314 97.9057 66.2816 97.2692 66.8461 96.7432C67.4107 96.2173 68.0774 95.8132 68.8049 95.5561C69.5324 95.2991 70.305 95.1945 71.0747 95.2491H103.384C104.153 95.1945 104.926 95.2991 105.653 95.5561C106.381 95.8132 107.048 96.2173 107.612 96.7432C108.177 97.2692 108.627 97.9057 108.935 98.6132C109.243 99.3207 109.401 100.084 109.401 100.856C109.401 101.627 109.243 102.39 108.935 103.098C108.627 103.805 108.177 104.442 107.612 104.968C107.048 105.494 106.381 105.898 105.653 106.155C104.926 106.412 104.153 106.517 103.384 106.462V106.462Z" fill="url(#paint35_linear_2040_113)"/>
<path style="mix-blend-mode:screen" opacity="0.5" d="M93.8303 104.286H72.775C70.7547 104.286 68.825 102.949 68.825 101.298C68.825 99.6458 70.7547 98.3093 72.775 98.3093H93.8303C95.8475 98.3093 97.4837 99.6489 97.4837 101.298C97.4837 102.946 95.8475 104.286 93.8303 104.286Z" fill="url(#paint36_linear_2040_113)"/>
<path style="mix-blend-mode:multiply" d="M103.384 95.2491H71.0747C70.305 95.1945 69.5324 95.2991 68.8049 95.5561C68.0774 95.8132 67.4107 96.2173 66.8461 96.7432C66.2816 97.2692 65.8314 97.9057 65.5236 98.6132C65.2158 99.3207 65.0569 100.084 65.0569 100.856C65.0569 101.627 65.2158 102.39 65.5236 103.098C65.8314 103.805 66.2816 104.442 66.8461 104.968C67.4107 105.494 68.0774 105.898 68.8049 106.155C69.5324 106.412 70.305 106.517 71.0747 106.462H103.384C104.153 106.517 104.926 106.412 105.653 106.155C106.381 105.898 107.048 105.494 107.612 104.968C108.177 104.442 108.627 103.805 108.935 103.098C109.243 102.39 109.401 101.627 109.401 100.856C109.401 100.084 109.243 99.3207 108.935 98.6132C108.627 97.9057 108.177 97.2692 107.612 96.7432C107.048 96.2173 106.381 95.8132 105.653 95.5561C104.926 95.2991 104.153 95.1945 103.384 95.2491ZM102.594 105.835H71.4588C68.4767 105.835 66.0567 103.73 66.0567 101.132C66.0567 98.534 68.4767 96.7229 71.4588 96.7229H102.594C105.576 96.7229 107.699 98.534 107.699 101.132C107.699 103.73 105.576 105.835 102.594 105.835Z" fill="url(#paint37_linear_2040_113)"/>
<path style="mix-blend-mode:multiply" opacity="0.4" d="M57.4264 107.199H55.8652C55.0203 107.218 54.1802 107.068 53.3941 106.757C52.6081 106.447 51.892 105.983 51.2878 105.392C50.6837 104.801 50.2037 104.095 49.8759 103.316C49.5482 102.537 49.3794 101.701 49.3794 100.856C49.3794 100.011 49.5482 99.1742 49.8759 98.3952C50.2037 97.6163 50.6837 96.9107 51.2878 96.3198C51.892 95.7289 52.6081 95.2646 53.3941 94.9542C54.1802 94.6439 55.0203 94.4936 55.8652 94.5124H57.4264C58.2713 94.4936 59.1114 94.6439 59.8975 94.9542C60.6835 95.2646 61.3996 95.7289 62.0038 96.3198C62.6079 96.9107 63.0879 97.6163 63.4157 98.3952C63.7434 99.1742 63.9122 100.011 63.9122 100.856C63.9122 101.701 63.7434 102.537 63.4157 103.316C63.0879 104.095 62.6079 104.801 62.0038 105.392C61.3996 105.983 60.6835 106.447 59.8975 106.757C59.1114 107.068 58.2713 107.218 57.4264 107.199V107.199Z" fill="url(#paint38_linear_2040_113)"/>
<path d="M57.4272 106.463H55.8659C55.0963 106.517 54.3236 106.413 53.5962 106.156C52.8687 105.898 52.2019 105.494 51.6374 104.968C51.0728 104.443 50.6226 103.806 50.3148 103.098C50.007 102.391 49.8481 101.628 49.8481 100.856C49.8481 100.084 50.007 99.3212 50.3148 98.6137C50.6226 97.9062 51.0728 97.2696 51.6374 96.7437C52.2019 96.2177 52.8687 95.8137 53.5962 95.5566C54.3236 95.2995 55.0963 95.195 55.8659 95.2495H57.4272C58.8456 95.35 60.1731 95.9843 61.1424 97.0247C62.1117 98.0651 62.6506 99.4341 62.6506 100.856C62.6506 102.278 62.1117 103.647 61.1424 104.687C60.1731 105.728 58.8456 106.362 57.4272 106.463V106.463Z" fill="url(#paint39_linear_2040_113)"/>
<path style="mix-blend-mode:screen" opacity="0.5" d="M56.6349 104.633H55.5607C55.0529 104.653 54.5461 104.571 54.0708 104.391C53.5955 104.211 53.1615 103.937 52.7949 103.585C52.4282 103.233 52.1365 102.81 51.9372 102.343C51.7379 101.875 51.6353 101.372 51.6353 100.864C51.6353 100.355 51.7379 99.8524 51.9372 99.3848C52.1365 98.9173 52.4282 98.4948 52.7949 98.1428C53.1615 97.7908 53.5955 97.5165 54.0708 97.3364C54.5461 97.1563 55.0529 97.0741 55.5607 97.0948H56.6349C57.1427 97.0741 57.6495 97.1563 58.1248 97.3364C58.6001 97.5165 59.0341 97.7908 59.4008 98.1428C59.7674 98.4948 60.0591 98.9173 60.2584 99.3848C60.4577 99.8524 60.5604 100.355 60.5604 100.864C60.5604 101.372 60.4577 101.875 60.2584 102.343C60.0591 102.81 59.7674 103.233 59.4008 103.585C59.0341 103.937 58.6001 104.211 58.1248 104.391C57.6495 104.571 57.1427 104.653 56.6349 104.633V104.633Z" fill="url(#paint40_linear_2040_113)"/>
<path style="mix-blend-mode:multiply" d="M57.4272 95.2495H55.8659C55.0963 95.195 54.3236 95.2995 53.5962 95.5566C52.8687 95.8137 52.2019 96.2177 51.6374 96.7437C51.0728 97.2696 50.6226 97.9062 50.3148 98.6137C50.007 99.3212 49.8481 100.084 49.8481 100.856C49.8481 101.628 50.007 102.391 50.3148 103.098C50.6226 103.806 51.0728 104.443 51.6374 104.968C52.2019 105.494 52.8687 105.898 53.5962 106.156C54.3236 106.413 55.0963 106.517 55.8659 106.463H57.4272C58.8456 106.362 60.1731 105.728 61.1424 104.687C62.1117 103.647 62.6506 102.278 62.6506 100.856C62.6506 99.4341 62.1117 98.0651 61.1424 97.0247C60.1731 95.9843 58.8456 95.35 57.4272 95.2495V95.2495ZM57.1149 105.916H55.7785C54.5304 105.916 53.3336 105.42 52.4511 104.538C51.5686 103.655 51.0728 102.458 51.0728 101.21C51.0728 99.9624 51.5686 98.7656 52.4511 97.8831C53.3336 97.0006 54.5304 96.5048 55.7785 96.5048H57.1149C58.363 96.5048 59.5599 97.0006 60.4424 97.8831C61.3248 98.7656 61.8206 99.9624 61.8206 101.21C61.8206 102.458 61.3248 103.655 60.4424 104.538C59.5599 105.42 58.363 105.916 57.1149 105.916V105.916Z" fill="url(#paint41_linear_2040_113)"/>
<defs>
<linearGradient id="paint0_linear_2040_113" x1="249300" y1="151172" x2="249300" y2="202339" gradientUnits="userSpaceOnUse">
<stop stop-color="#D9923C"/>
<stop offset="1" stop-color="#BD6519"/>
</linearGradient>
<linearGradient id="paint1_linear_2040_113" x1="213167" y1="105019" x2="227588" y2="136087" gradientUnits="userSpaceOnUse">
<stop stop-color="#FFD37E"/>
<stop offset="1"/>
</linearGradient>
<radialGradient id="paint2_radial_2040_113" cx="0" cy="0" r="1" gradientUnits="userSpaceOnUse" gradientTransform="translate(183659 67794.4) scale(31366 20899.8)">
<stop stop-color="#FFD37E"/>
<stop offset="1"/>
</radialGradient>
<linearGradient id="paint3_linear_2040_113" x1="231233" y1="93089.6" x2="254995" y2="181802" gradientUnits="userSpaceOnUse">
<stop stop-color="white"/>
<stop offset="1" stop-color="#BD6519"/>
</linearGradient>
<radialGradient id="paint4_radial_2040_113" cx="0" cy="0" r="1" gradientUnits="userSpaceOnUse" gradientTransform="translate(222136 97487.9) scale(33432.3 19315.4)">
<stop stop-color="#A95C19"/>
<stop offset="1" stop-color="white"/>
</radialGradient>
<linearGradient id="paint5_linear_2040_113" x1="197646" y1="137963" x2="214847" y2="159437" gradientUnits="userSpaceOnUse">
<stop stop-color="#8B4519"/>
<stop offset="1" stop-color="white"/>
</linearGradient>
<linearGradient id="paint6_linear_2040_113" x1="188997" y1="132076" x2="205799" y2="156805" gradientUnits="userSpaceOnUse">
<stop stop-color="#8B4519"/>
<stop offset="1" stop-color="white"/>
</linearGradient>
<linearGradient id="paint7_linear_2040_113" x1="80.8986" y1="23.765" x2="80.8986" y2="137.239" gradientUnits="userSpaceOnUse">
<stop stop-color="#36ACFD"/>
<stop offset="1" stop-color="#004E7C"/>
</linearGradient>
<linearGradient id="paint8_linear_2040_113" x1="134249" y1="66452.8" x2="136226" y2="76339" gradientUnits="userSpaceOnUse">
<stop stop-color="#35B5FF"/>
<stop offset="1"/>
</linearGradient>
<linearGradient id="paint9_linear_2040_113" x1="158470" y1="62735.3" x2="158009" y2="56944" gradientUnits="userSpaceOnUse">
<stop stop-color="white"/>
<stop offset="1" stop-color="#0072B5"/>
</linearGradient>
<linearGradient id="paint10_linear_2040_113" x1="161081" y1="64649.4" x2="174034" y2="107527" gradientUnits="userSpaceOnUse">
<stop stop-color="white"/>
<stop offset="1" stop-color="#0072B5"/>
</linearGradient>
<radialGradient id="paint11_radial_2040_113" cx="0" cy="0" r="1" gradientUnits="userSpaceOnUse" gradientTransform="translate(176376 90333.6) scale(28302 20510.5)">
<stop stop-color="#00639F"/>
<stop offset="1" stop-color="white"/>
</radialGradient>
<linearGradient id="paint12_linear_2040_113" x1="102249" y1="15858.9" x2="102286" y2="17241.9" gradientUnits="userSpaceOnUse">
<stop stop-color="white"/>
<stop offset="1" stop-color="#0072B5"/>
</linearGradient>
<linearGradient id="paint13_linear_2040_113" x1="97232.1" y1="12752.9" x2="97270.7" y2="15402.4" gradientUnits="userSpaceOnUse">
<stop stop-color="white"/>
<stop offset="1" stop-color="#0072B5"/>
</linearGradient>
<linearGradient id="paint14_linear_2040_113" x1="70720.4" y1="10775.4" x2="70752.3" y2="11785.4" gradientUnits="userSpaceOnUse">
<stop stop-color="white"/>
<stop offset="1" stop-color="#0072B5"/>
</linearGradient>
<linearGradient id="paint15_linear_2040_113" x1="69688.7" y1="10314.8" x2="69688.7" y2="10718.5" gradientUnits="userSpaceOnUse">
<stop stop-color="#F9C849"/>
<stop offset="1" stop-color="#ED7C18"/>
</linearGradient>
<linearGradient id="paint16_linear_2040_113" x1="44077.2" y1="6318.93" x2="44184" y2="6750.25" gradientUnits="userSpaceOnUse">
<stop stop-color="#FFEA7E"/>
<stop offset="1"/>
</linearGradient>
<linearGradient id="paint17_linear_2040_113" x1="69573.9" y1="11032.6" x2="69583" y2="10397.3" gradientUnits="userSpaceOnUse">
<stop stop-color="white"/>
<stop offset="1" stop-color="#BD6F31"/>
</linearGradient>
<linearGradient id="paint18_linear_2040_113" x1="21311.8" y1="11319.6" x2="21420.2" y2="11907.1" gradientUnits="userSpaceOnUse">
<stop stop-color="white"/>
<stop offset="1" stop-color="#0072B5"/>
</linearGradient>
<linearGradient id="paint19_linear_2040_113" x1="18896.9" y1="10314.8" x2="18896.9" y2="10718.5" gradientUnits="userSpaceOnUse">
<stop stop-color="#F9C849"/>
<stop offset="1" stop-color="#ED7C18"/>
</linearGradient>
<linearGradient id="paint20_linear_2040_113" x1="13009" y1="6995.58" x2="13052.6" y2="7140.53" gradientUnits="userSpaceOnUse">
<stop stop-color="#FFEA7E"/>
<stop offset="1"/>
</linearGradient>
<linearGradient id="paint21_linear_2040_113" x1="18911.7" y1="11022.1" x2="18897.7" y2="10405.9" gradientUnits="userSpaceOnUse">
<stop stop-color="white"/>
<stop offset="1" stop-color="#BD6F31"/>
</linearGradient>
<linearGradient id="paint22_linear_2040_113" x1="102249" y1="17064.6" x2="102286" y2="18447.6" gradientUnits="userSpaceOnUse">
<stop stop-color="white"/>
<stop offset="1" stop-color="#0072B5"/>
</linearGradient>
<linearGradient id="paint23_linear_2040_113" x1="97232" y1="13757.9" x2="97270.6" y2="16404.7" gradientUnits="userSpaceOnUse">
<stop stop-color="white"/>
<stop offset="1" stop-color="#0072B5"/>
</linearGradient>
<linearGradient id="paint24_linear_2040_113" x1="70720.4" y1="11604.8" x2="70752.3" y2="12614.8" gradientUnits="userSpaceOnUse">
<stop stop-color="white"/>
<stop offset="1" stop-color="#0072B5"/>
</linearGradient>
<linearGradient id="paint25_linear_2040_113" x1="69688.7" y1="11051.8" x2="69688.7" y2="11455.4" gradientUnits="userSpaceOnUse">
<stop stop-color="#F9C849"/>
<stop offset="1" stop-color="#ED7C18"/>
</linearGradient>
<linearGradient id="paint26_linear_2040_113" x1="44087" y1="5899.7" x2="44167.5" y2="6273.66" gradientUnits="userSpaceOnUse">
<stop stop-color="#FFEA7E"/>
<stop offset="1"/>
</linearGradient>
<linearGradient id="paint27_linear_2040_113" x1="69573.9" y1="11769.6" x2="69583" y2="11134.3" gradientUnits="userSpaceOnUse">
<stop stop-color="white"/>
<stop offset="1" stop-color="#BD6F31"/>
</linearGradient>
<linearGradient id="paint28_linear_2040_113" x1="21311.8" y1="12148.9" x2="21420.2" y2="12736.5" gradientUnits="userSpaceOnUse">
<stop stop-color="white"/>
<stop offset="1" stop-color="#0072B5"/>
</linearGradient>
<linearGradient id="paint29_linear_2040_113" x1="18896.9" y1="11051.8" x2="18896.9" y2="11455.4" gradientUnits="userSpaceOnUse">
<stop stop-color="#F9C849"/>
<stop offset="1" stop-color="#ED7C18"/>
</linearGradient>
<linearGradient id="paint30_linear_2040_113" x1="13035.4" y1="7172.12" x2="13073.9" y2="7306.48" gradientUnits="userSpaceOnUse">
<stop stop-color="#FFEA7E"/>
<stop offset="1"/>
</linearGradient>
<linearGradient id="paint31_linear_2040_113" x1="18911.7" y1="11759.1" x2="18897.7" y2="11142.9" gradientUnits="userSpaceOnUse">
<stop stop-color="white"/>
<stop offset="1" stop-color="#BD6F31"/>
</linearGradient>
<linearGradient id="paint32_linear_2040_113" x1="102249" y1="18350.8" x2="102286" y2="19733.8" gradientUnits="userSpaceOnUse">
<stop stop-color="white"/>
<stop offset="1" stop-color="#0072B5"/>
</linearGradient>
<linearGradient id="paint33_linear_2040_113" x1="97232" y1="14843.3" x2="97270.6" y2="17490.1" gradientUnits="userSpaceOnUse">
<stop stop-color="white"/>
<stop offset="1" stop-color="#0072B5"/>
</linearGradient>
<linearGradient id="paint34_linear_2040_113" x1="70720.4" y1="12489.5" x2="70752.3" y2="13499.5" gradientUnits="userSpaceOnUse">
<stop stop-color="white"/>
<stop offset="1" stop-color="#0072B5"/>
</linearGradient>
<linearGradient id="paint35_linear_2040_113" x1="69688.7" y1="11837.9" x2="69688.7" y2="12241.6" gradientUnits="userSpaceOnUse">
<stop stop-color="#F9C849"/>
<stop offset="1" stop-color="#ED7C18"/>
</linearGradient>
<linearGradient id="paint36_linear_2040_113" x1="44087" y1="6334.26" x2="44167.5" y2="6708.22" gradientUnits="userSpaceOnUse">
<stop stop-color="#FFEA7E"/>
<stop offset="1"/>
</linearGradient>
<linearGradient id="paint37_linear_2040_113" x1="69573.9" y1="12555.8" x2="69583" y2="11920.4" gradientUnits="userSpaceOnUse">
<stop stop-color="white"/>
<stop offset="1" stop-color="#BD6F31"/>
</linearGradient>
<linearGradient id="paint38_linear_2040_113" x1="21311.8" y1="13033.5" x2="21420.2" y2="13621.1" gradientUnits="userSpaceOnUse">
<stop stop-color="white"/>
<stop offset="1" stop-color="#0072B5"/>
</linearGradient>
<linearGradient id="paint39_linear_2040_113" x1="18896.9" y1="11837.9" x2="18896.9" y2="12241.6" gradientUnits="userSpaceOnUse">
<stop stop-color="#F9C849"/>
<stop offset="1" stop-color="#ED7C18"/>
</linearGradient>
<linearGradient id="paint40_linear_2040_113" x1="13140.7" y1="8031.28" x2="13183.9" y2="8176.47" gradientUnits="userSpaceOnUse">
<stop stop-color="#FFEA7E"/>
<stop offset="1"/>
</linearGradient>
<linearGradient id="paint41_linear_2040_113" x1="18911.7" y1="12545.2" x2="18897.7" y2="11929" gradientUnits="userSpaceOnUse">
<stop stop-color="white"/>
<stop offset="1" stop-color="#BD6F31"/>
</linearGradient>
</defs>
</svg>
