<svg width="161" height="161" viewBox="0 0 161 161" fill="none" xmlns="http://www.w3.org/2000/svg">
<path d="M80.5026 161C61.8784 161 43.8302 154.543 29.4331 142.729C15.0361 130.914 5.18111 114.473 1.54728 96.2065C-2.08655 77.9402 0.725645 58.9791 9.50473 42.5539C18.2838 26.1286 32.4865 13.2556 49.693 6.12814C66.8994 -0.999273 86.0449 -1.94005 103.867 3.4661C121.689 8.87225 137.086 20.2908 147.433 35.7762C157.78 51.2617 162.438 69.8557 160.612 88.3903C158.787 106.925 150.591 124.253 137.422 137.422C129.965 144.921 121.094 150.865 111.324 154.912C101.554 158.959 91.0778 161.029 80.5026 161V161Z" fill="url(#paint0_linear_2040_183)"/>
<path style="mix-blend-mode:screen" opacity="0.5" d="M31.1203 135.899C30.331 135.901 29.5493 135.746 28.8199 135.445C28.0906 135.143 27.4281 134.7 26.8707 134.141C18.8642 126.111 12.7598 116.389 9.00668 105.689C5.25353 94.9885 3.94707 83.5831 5.18347 72.3114C6.41987 61.0397 10.1677 50.1886 16.1511 40.5564C22.1345 30.9242 30.2014 22.7561 39.7581 16.6529C49.3148 10.5498 60.1183 6.66686 71.3737 5.28988C82.629 3.9129 94.05 5.07689 104.796 8.69621C115.542 12.3155 125.34 18.2981 133.469 26.2037C141.598 34.1094 147.851 43.737 151.769 54.3782C152.319 55.8763 152.251 57.5314 151.58 58.9795C151.248 59.6966 150.778 60.3412 150.197 60.8766C149.616 61.412 148.935 61.8277 148.193 62.1C146.695 62.6499 145.04 62.5821 143.592 61.9116C142.144 61.2412 141.022 60.0229 140.472 58.5248C137.181 49.5592 131.92 41.446 125.078 34.7827C118.236 28.1194 109.987 23.0758 100.937 20.0233C91.8874 16.9708 82.2683 15.9872 72.7882 17.1449C63.3081 18.3025 54.2084 21.572 46.1593 26.7126C38.1102 31.8531 31.3167 38.7337 26.2791 46.8477C21.2416 54.9616 18.0884 64.1023 17.0516 73.5964C16.0148 83.0905 17.121 92.6963 20.2885 101.706C23.4561 110.716 28.6044 118.901 35.3544 125.657C36.194 126.498 36.7656 127.568 36.9972 128.733C37.2288 129.898 37.1098 131.105 36.6553 132.203C36.2009 133.3 35.4313 134.238 34.4439 134.898C33.4565 135.558 32.2956 135.911 31.1078 135.912L31.1203 135.899Z" fill="url(#paint1_linear_2040_183)"/>
<path style="mix-blend-mode:screen" opacity="0.8" d="M3.70101 86.4457C3.70101 65.4347 12.0941 45.6852 27.3379 30.8286C42.5817 15.972 62.8433 7.79428 84.4007 7.79428C101.643 7.79428 118.058 13.0338 131.737 22.7321C120.606 12.8616 106.861 6.41677 92.1536 4.17281C77.4468 1.92886 62.4048 3.98127 48.8367 10.0832C35.2685 16.1852 23.7521 26.0769 15.6722 38.5686C7.59243 51.0604 3.29335 65.6203 3.29199 80.4974C3.29228 83.297 3.44236 86.0945 3.74161 88.8781C3.71663 88.0725 3.70101 87.2513 3.70101 86.4457Z" fill="url(#paint2_radial_2040_183)"/>
<path style="mix-blend-mode:multiply" opacity="0.5" d="M137.422 23.5874C124.254 10.4204 106.927 2.22653 88.395 0.402033C69.8627 -1.42246 51.2712 3.23527 35.7881 13.5816C20.305 23.9279 8.88837 39.3227 3.48338 57.1429C-1.92161 74.9631 -0.9805 94.1061 6.14634 111.31C13.2732 128.514 26.1448 142.715 42.5681 151.493C58.9913 160.271 77.9501 163.082 96.214 159.449C114.478 155.815 130.917 145.962 142.73 131.566C154.543 117.171 161 99.1253 160.999 80.5034C161.028 69.9288 158.958 59.4536 154.911 49.684C150.864 39.9144 144.92 31.0444 137.422 23.5874V23.5874ZM134.69 131.815C119.97 146.012 100.399 153.831 79.5815 153.831C58.7641 153.831 39.1957 146.025 24.4734 131.815C9.751 117.604 1.64825 98.7385 1.64825 78.6612C1.64825 58.5838 9.76662 39.7055 24.4734 25.5077C39.1801 11.3099 58.7641 3.49132 79.5815 3.49132C100.399 3.49132 119.97 11.2974 134.69 25.5077C149.409 39.718 157.518 58.5838 157.518 78.6612C157.518 98.7385 149.409 117.617 134.69 131.815Z" fill="url(#paint3_linear_2040_183)"/>
<path style="mix-blend-mode:multiply" d="M135.396 133.151C120.677 147.349 100.503 155.476 79.6856 155.476C59.4708 155.476 38.5161 147.486 25.7546 134.993C25.7546 136.529 25.7952 138.066 25.8545 139.602C36.9667 149.878 50.751 156.814 65.6257 159.612C80.5003 162.411 95.8626 160.959 109.95 155.423C124.037 149.887 136.277 140.492 145.267 128.316C154.258 116.139 159.633 101.675 160.776 86.5827C159.978 85.3712 159.163 84.1743 158.331 82.9919C156.357 105.986 149.36 119.678 135.396 133.151Z" fill="url(#paint4_radial_2040_183)"/>
<path style="mix-blend-mode:multiply" opacity="0.3" d="M80.735 145.844C64.4639 145.844 49.1671 139.237 37.664 127.241C26.1608 115.244 19.8223 99.2947 19.8223 82.3273C19.8223 65.3599 26.1577 49.4136 37.664 37.4171C49.1702 25.4207 64.0143 20.0813 80.2854 20.0813C96.5565 20.0813 112.303 25.4207 123.809 37.4171C135.315 49.4136 141.648 65.3631 141.648 82.3273C141.648 99.2916 136.677 115.638 125.171 127.634C113.664 139.631 97.0061 145.844 80.735 145.844Z" fill="url(#paint5_linear_2040_183)"/>
<path style="mix-blend-mode:multiply" opacity="0.5" d="M80.7369 143.796C64.9966 143.796 50.1993 137.404 39.0678 125.798C27.9363 114.192 21.8069 98.7609 21.8069 82.3493C21.8069 65.9377 27.9363 50.5003 39.0678 38.9004C50.1993 27.3005 64.5626 22.1297 80.3029 22.1297C96.0431 22.1297 111.278 27.2942 122.406 38.9004C133.534 50.5065 139.667 65.9346 139.667 82.3493C139.667 98.764 134.855 114.576 123.721 126.179C112.586 137.782 96.4772 143.796 80.7369 143.796Z" fill="url(#paint6_linear_2040_183)"/>
<path d="M80.5025 137.241C67.3767 137.241 54.6571 132.689 44.511 124.362C34.3649 116.035 27.4201 104.447 24.8597 91.5734C22.2993 78.6998 24.2819 65.3366 30.4696 53.7608C36.6573 42.185 46.6673 33.1128 58.7941 28.09C70.9208 23.0671 84.414 22.4044 96.9745 26.2148C109.535 30.0251 120.386 38.0727 127.678 48.9864C134.97 59.9001 138.253 73.0047 136.967 86.0673C135.68 99.1299 129.904 111.342 120.623 120.624C115.366 125.909 109.114 130.099 102.227 132.952C95.3406 135.804 87.9565 137.262 80.5025 137.241Z" fill="url(#paint7_linear_2040_183)"/>
<path style="mix-blend-mode:screen" opacity="0.6" d="M84.2814 104.268C87.4547 103.551 90.5518 102.53 93.5302 101.221C87.4539 99.8595 83.9161 89.4056 82.7264 86.9045C81.7398 84.8281 80.9966 82.9921 80.7312 81.3746C80.3315 78.9672 81.1902 76.5629 82.6234 74.8175C83.3054 73.9713 84.1516 73.2719 85.1111 72.7616C86.0706 72.2513 87.1235 71.9405 88.2064 71.848C88.2064 71.848 85.5616 66.7397 78.3238 65.447C75.4574 64.9349 70.7956 65.1348 67.008 68.0574C63.3329 70.8894 61.0754 74.1212 60.5539 79.1015C60.1262 83.2075 61.6125 87.6008 64.1385 90.3673C66.421 92.8653 68.257 93.9643 71.342 95.1134C75.2014 96.5466 77.2153 94.7356 81.0029 97.6395C82.2269 98.5793 83.9723 100.303 84.2814 104.268Z" fill="url(#paint8_linear_2040_183)"/>
<path style="mix-blend-mode:screen" opacity="0.6" d="M43.7248 83.2359C43.2471 72.1075 47.3437 63.1741 53.5543 57.2914C61.8163 49.5759 71.3053 47.462 80.4541 48.5486C88.9784 49.5634 97.2498 55.1245 102.371 62.1375C103.573 63.783 107.367 70.3964 107.9 77.5655C110.358 77.1565 113.774 78.3524 115.707 81.047C118.391 75.9527 119.803 70.2845 119.822 64.5261C119.822 54.1846 115.198 44.6986 106.804 37.8136C98.4113 30.9286 87.2486 27.4658 75.3771 28.0684C63.5055 28.6711 52.3427 33.2611 43.9465 40.9985C35.5502 48.7359 30.929 58.6903 30.929 69.0318C30.929 79.3734 35.5533 88.8594 43.9465 95.7444C45.9203 97.3606 48.0402 98.7895 50.2788 100.013C46.3164 95.0575 44.0121 87.7572 43.7248 83.2359Z" fill="url(#paint9_linear_2040_183)"/>
<path style="mix-blend-mode:multiply" opacity="0.3" d="M128.715 67.5989C126.72 74.6868 122.523 80.3572 117.265 84.7037C117.674 86.6833 117.228 89.3311 115.704 91.1203C113.859 93.2717 109.49 96.3098 106.024 98.3925C102.902 100.266 99.1956 101.874 95.7203 101.671C92.754 101.496 90.2592 100.066 87.9735 97.1341C85.8784 97.5276 83.8269 97.8398 81.8566 98.0709C86.5715 103.435 83.7738 109.58 80.2954 111.56C76.2987 113.833 69.3013 112.381 64.3178 110.604C60.5709 109.271 50.323 103.164 46.7884 94.4457C39.918 91.9961 33.5165 88.3909 27.8601 83.7857C29.6118 93.4403 34.5234 102.333 42.1266 109.39C51.7874 118.364 64.5832 124.125 78.2471 124.125C91.9109 124.125 104.807 118.364 114.467 109.39C124.128 100.416 129.455 88.4693 129.455 75.7891C129.459 73.0421 129.212 70.3006 128.715 67.5989V67.5989Z" fill="url(#paint10_linear_2040_183)"/>
<path style="mix-blend-mode:multiply" opacity="0.4" d="M120.625 40.3867C111.343 31.1046 99.1294 25.328 86.0658 24.0413C73.0023 22.7545 59.8967 26.0373 48.9822 33.3301C38.0677 40.6229 30.0196 51.4747 26.2092 64.0362C22.3987 76.5978 23.0618 90.0919 28.0853 102.219C33.1088 114.347 42.1821 124.357 53.759 130.545C65.3358 136.733 78.7001 138.715 91.5746 136.154C104.449 133.592 116.037 126.646 124.364 116.499C132.692 106.352 137.243 93.6307 137.242 80.504C137.262 73.0505 135.804 65.667 132.952 58.7809C130.099 51.8948 125.909 45.6428 120.625 40.3867V40.3867ZM115.12 110.614C105.39 119.937 92.4538 125.071 78.6963 125.071C64.9388 125.071 51.9993 119.937 42.2698 110.614C32.5402 101.29 26.8417 89.3811 26.8417 76.2044C26.8417 63.0276 32.1999 50.6221 41.9294 41.2985C51.659 31.9748 64.5953 26.8415 78.3559 26.8415C92.1165 26.8415 105.05 31.978 114.779 41.2985C124.509 50.619 129.867 63.0182 129.867 76.2044C129.867 89.3905 124.849 101.303 115.12 110.614V110.614Z" fill="url(#paint11_linear_2040_183)"/>
<path style="mix-blend-mode:multiply" d="M117.273 113.277C107.543 122.601 94.538 128.64 79.1786 128.33C65.4211 128.056 42.2057 121.811 27.8674 101.328C28.289 104.659 35.6517 117.168 41.7623 121.936C49.8402 129.489 59.9495 134.517 70.8469 136.401C81.7444 138.285 92.9549 136.943 103.1 132.54C113.245 128.137 121.881 120.865 127.948 111.618C134.015 102.372 137.247 91.5537 137.247 80.4945C137.247 78.7054 137.159 76.9318 136.997 75.1708C136.969 71.2802 134.377 61.3102 132.669 57.9661C137.241 88.3569 127.002 103.954 117.273 113.277Z" fill="url(#paint12_radial_2040_183)"/>
<path d="M65.5532 32.7797C61.7563 31.843 54.6964 36.4673 54.4935 39.1308C54.225 42.6248 58.9992 41.9972 64.12 39.3368C68.2041 37.2105 68.0105 33.3948 65.5532 32.7797Z" fill="#E5FFFF"/>
<path d="M47.6812 43.7864C44.9428 43.9894 42.9195 46.1345 43.3691 47.9549C43.9592 50.3467 46.5321 49.9689 48.493 48.0298C50.788 45.7567 49.4547 43.6553 47.6812 43.7864Z" fill="#E5FFFF"/>
<path style="mix-blend-mode:multiply" opacity="0.2" d="M75.7972 112.543C69.5784 112.539 63.4952 110.725 58.2902 107.322C53.0853 103.918 48.9837 99.0735 46.4862 93.3782C43.9886 87.683 43.2032 81.3838 44.2257 75.2497C45.2483 69.1155 48.0346 63.4118 52.2445 58.8346C56.4544 54.2575 61.9059 51.0051 67.9333 49.4743C73.9608 47.9436 80.3035 48.2007 86.1872 50.2144C92.071 52.2281 97.2412 55.9111 101.067 60.814C104.892 65.7169 107.208 71.6275 107.73 77.8243C109.542 77.5621 111.389 77.9038 112.986 78.7966C114.584 79.6894 115.843 81.0835 116.568 82.7635C117.294 84.4435 117.446 86.3158 117.001 88.0909C116.556 89.866 115.539 91.4452 114.106 92.5841C113.994 92.6716 111.274 94.8354 108.068 96.9399C102.903 100.334 99.3248 101.724 96.09 101.586C95.1225 101.548 94.166 101.367 93.2517 101.049C89.6671 99.8001 87.2659 96.8775 84.0685 89.8426C82.5073 86.4391 81.302 83.1606 81.2895 83.1293C80.8336 81.9121 80.6699 80.6049 80.8115 79.3128C80.9531 78.0208 81.396 76.78 82.1047 75.6904C82.8134 74.6008 83.768 73.6928 84.8916 73.0395C86.0153 72.3862 87.2767 72.0059 88.5742 71.9291C87.0931 69.7225 85.0658 67.937 82.6897 66.7465C80.3137 65.556 77.6698 65.001 75.0156 65.1357C72.3614 65.2704 69.7873 66.09 67.5439 67.5149C65.3005 68.9397 63.4643 70.9212 62.2141 73.2664C60.9639 75.6116 60.3423 78.2406 60.4098 80.8974C60.4773 83.5542 61.2316 86.1482 62.5993 88.4269C63.967 90.7056 65.9014 92.5913 68.2143 93.9004C70.5271 95.2095 73.1395 95.8973 75.7972 95.897C76.9041 95.8756 78.0042 96.0751 79.0332 96.4839C80.0621 96.8927 80.9992 97.5026 81.7896 98.2778C82.58 99.0531 83.2079 99.9782 83.6366 100.999C84.0652 102.02 84.286 103.116 84.286 104.223C84.286 105.33 84.0652 106.426 83.6366 107.447C83.2079 108.468 82.58 109.393 81.7896 110.168C80.9992 110.944 80.0621 111.553 79.0332 111.962C78.0042 112.371 76.9041 112.571 75.7972 112.549V112.543Z" fill="url(#paint13_linear_2040_183)"/>
<path style="mix-blend-mode:multiply" opacity="0.3" d="M75.7986 111.182C69.7714 111.181 63.8779 109.406 58.8538 106.076C53.8297 102.747 49.8977 98.0109 47.5486 92.4604C45.1995 86.9098 44.5374 80.7903 45.6451 74.8658C46.7527 68.9413 49.581 63.4743 53.7767 59.1473C57.9725 54.8204 63.3499 51.8253 69.2375 50.5358C75.1251 49.2464 81.2622 49.7198 86.8824 51.897C92.5026 54.0742 97.3569 57.8586 100.839 62.7779C104.322 67.6971 106.278 73.5332 106.464 79.5575C108.016 78.9714 109.726 78.9588 111.287 79.5221C112.847 80.0854 114.155 81.1875 114.974 82.6297C115.794 84.072 116.072 85.7596 115.757 87.3884C115.442 89.0172 114.556 90.4801 113.259 91.5134C113.146 91.604 110.467 93.7335 107.326 95.8005C102.421 99.0229 99.0795 100.347 96.1538 100.222C95.3192 100.189 94.4942 100.032 93.7058 99.7567C90.5303 98.6607 88.3352 95.9192 85.3189 89.2777C83.7858 85.9024 82.5899 82.6925 82.5774 82.6581C82.1247 81.4483 82.0183 80.1362 82.2702 78.8693C82.522 77.6023 83.122 76.4307 84.0029 75.4859C84.8838 74.5411 86.0107 73.8606 87.2569 73.5209C88.5031 73.1811 89.8194 73.1955 91.058 73.5624C89.8111 70.8225 87.8492 68.469 85.3785 66.7493C82.9079 65.0296 80.0196 64.0071 77.0172 63.7894C74.0148 63.5716 71.0092 64.1666 68.3162 65.5118C65.6232 66.857 63.3422 68.9027 61.7131 71.434C60.0839 73.9653 59.1666 76.8887 59.0577 79.8971C58.9487 82.9054 59.6521 85.8875 61.0938 88.53C62.5356 91.1726 64.6626 93.378 67.2512 94.9145C69.8398 96.451 72.7945 97.2618 75.8048 97.2618C77.6507 97.2618 79.421 97.9951 80.7262 99.3004C82.0314 100.606 82.7647 102.376 82.7647 104.222C82.7647 106.068 82.0314 107.838 80.7262 109.143C79.421 110.448 77.6507 111.182 75.8048 111.182H75.7986Z" fill="url(#paint14_linear_2040_183)"/>
<path style="mix-blend-mode:multiply" opacity="0.4" d="M75.7985 109.817C70.0008 109.817 64.3333 108.098 59.5127 104.877C54.6921 101.656 50.9349 97.0774 48.7162 91.721C46.4976 86.3647 45.9171 80.4707 47.0481 74.7844C48.1792 69.0981 50.9711 63.875 55.0706 59.7754C59.1702 55.6758 64.3934 52.884 70.0797 51.7529C75.7659 50.6218 81.6599 51.2023 87.0162 53.421C92.3726 55.6397 96.9508 59.3969 100.172 64.2175C103.393 69.0381 105.112 74.7055 105.112 80.5032C105.112 80.9934 105.112 81.4868 105.075 81.977C105.203 81.8802 105.327 81.7803 105.449 81.6835C106.612 80.7622 108.092 80.3398 109.566 80.5089C111.039 80.6781 112.385 81.4251 113.308 82.5859C114.229 83.7482 114.652 85.2281 114.483 86.7013C114.315 88.1746 113.569 89.5209 112.409 90.4451C112.297 90.5325 109.646 92.6308 106.57 94.6573C101.927 97.7079 98.8328 98.9663 96.2068 98.857C95.5043 98.8296 94.8098 98.698 94.146 98.4667C91.3795 97.5112 89.3936 94.9602 86.5553 88.7153C85.0752 85.4554 83.9012 82.3174 83.8512 82.1831C83.3817 80.9246 83.3805 79.5393 83.8478 78.28C84.3152 77.0208 85.22 75.9716 86.3969 75.3243C87.5738 74.6769 88.9443 74.4745 90.2581 74.7541C91.5719 75.0336 92.7413 75.7764 93.5527 76.8468C92.8591 73.494 91.2292 70.4064 88.8521 67.9422C86.475 65.4781 83.4481 63.7382 80.1223 62.9244C76.7966 62.1107 73.3083 62.2564 70.062 63.3446C66.8157 64.4328 63.9443 66.419 61.781 69.0728C59.6176 71.7266 58.2508 74.9392 57.8392 78.3383C57.4275 81.7373 57.9878 85.1833 59.4551 88.2769C60.9224 91.3704 63.2366 93.9846 66.1293 95.8163C69.0219 97.648 72.3746 98.6222 75.7985 98.6259C77.2825 98.6259 78.7056 99.2154 79.755 100.265C80.8043 101.314 81.3939 102.737 81.3939 104.221C81.3939 105.705 80.8043 107.129 79.755 108.178C78.7056 109.227 77.2825 109.817 75.7985 109.817V109.817Z" fill="url(#paint15_linear_2040_183)"/>
<path d="M112.667 83.0952C111.879 82.1034 110.73 81.465 109.471 81.3204C108.213 81.1758 106.949 81.5367 105.957 82.3239C105.357 82.8017 104.736 83.2607 104.111 83.7384C104.232 82.6643 104.292 81.5844 104.292 80.5036C104.292 74.8677 102.621 69.3584 99.4901 64.6723C96.359 59.9862 91.9086 56.3339 86.7018 54.1772C81.4949 52.0204 75.7654 51.4561 70.2378 52.5556C64.7102 53.6551 59.6328 56.369 55.6476 60.3542C51.6625 64.3394 48.9486 69.4168 47.8491 74.9444C46.7496 80.4719 47.3139 86.2014 49.4706 91.4083C51.6274 96.6152 55.2797 101.066 59.9657 104.197C64.6518 107.328 70.1611 108.999 75.797 108.999C76.4344 109.015 77.0687 108.904 77.6624 108.671C78.256 108.438 78.7972 108.089 79.2538 107.644C79.7104 107.199 80.0733 106.667 80.3211 106.08C80.5688 105.492 80.6965 104.861 80.6965 104.223C80.6965 103.586 80.5688 102.954 80.3211 102.367C80.0733 101.779 79.7104 101.247 79.2538 100.802C78.7972 100.357 78.256 100.008 77.6624 99.7753C77.0687 99.5426 76.4344 99.4312 75.797 99.4475C72.0503 99.4475 68.3877 98.3364 65.2723 96.2548C62.157 94.1732 59.7289 91.2146 58.2951 87.7531C56.8613 84.2915 56.4861 80.4825 57.2171 76.8078C57.948 73.133 59.7523 69.7575 62.4016 67.1082C65.051 64.4588 68.4265 62.6546 72.1012 61.9236C75.776 61.1927 79.585 61.5678 83.0465 63.0017C86.5081 64.4355 89.4667 66.8636 91.5483 69.9789C93.6298 73.0942 94.7409 76.7568 94.7409 80.5036C94.7409 80.8314 94.7409 81.153 94.7159 81.4746C94.3194 80.516 93.929 79.5325 93.57 78.5645C93.1112 77.4001 92.2138 76.4622 91.0707 75.9525C89.9277 75.4429 88.6303 75.4021 87.4575 75.839C86.2847 76.2758 85.3302 77.1555 84.7992 78.2888C84.2682 79.4221 84.2031 80.7185 84.6179 81.8993C84.6679 82.0273 85.8232 85.1248 87.3001 88.3752C90.0322 94.3828 91.8901 96.8059 94.4099 97.6926C94.9987 97.8965 95.614 98.0133 96.2366 98.0392C98.7064 98.1391 101.688 96.8839 106.119 93.98C109.154 91.9848 111.786 89.8959 111.899 89.8084C112.39 89.4184 112.8 88.9352 113.105 88.3866C113.41 87.8379 113.603 87.2346 113.675 86.6111C113.746 85.9876 113.694 85.3561 113.521 84.7528C113.348 84.1495 113.058 83.5862 112.667 83.0952V83.0952Z" fill="url(#paint16_linear_2040_183)"/>
<path style="mix-blend-mode:screen" opacity="0.5" d="M95.3744 74.2588C95.3744 74.2588 96.9357 79.4889 96.7046 82.8612C96.5672 84.8065 96.1582 85.8306 94.9997 85.8306C93.3605 85.8306 92.7453 83.0985 91.9273 81.0502C91.334 79.567 90.6783 77.4375 87.8306 78.0464C85.9165 78.4554 85.7479 82.2492 87.5902 85.6245C90.0475 90.1302 92.3925 93.6243 93.6321 94.739C95.6804 96.5844 98.7873 97.1651 102.747 94.0239C102.747 94.0239 109.841 89.7368 111.043 88.4254C112.545 86.7861 112.339 85.3029 111.833 84.413C111.421 83.6918 110.359 83.0985 109.541 83.3733C108.723 83.648 107.833 84.0196 105.794 85.7619C103.755 87.5043 102.859 88.391 101.632 88.0819C100.405 87.7728 101.12 83.0641 101.12 83.0641C101.12 83.0641 101.432 76.4071 99.8895 72.7226C98.347 69.0381 95.3744 74.2588 95.3744 74.2588Z" fill="url(#paint17_linear_2040_183)"/>
<path style="mix-blend-mode:multiply" d="M112.667 83.0952C111.879 82.1034 110.73 81.465 109.471 81.3204C108.213 81.1758 106.949 81.5367 105.957 82.3239C105.357 82.8017 104.736 83.2607 104.111 83.7384C104.232 82.6643 104.292 81.5844 104.292 80.5036C104.292 74.8677 102.621 69.3584 99.4901 64.6723C96.359 59.9862 91.9086 56.3339 86.7018 54.1772C81.4949 52.0204 75.7654 51.4561 70.2378 52.5556C64.7102 53.6551 59.6328 56.369 55.6476 60.3542C51.6625 64.3394 48.9486 69.4168 47.8491 74.9444C46.7496 80.4719 47.3139 86.2014 49.4706 91.4083C51.6274 96.6152 55.2797 101.066 59.9657 104.197C64.6518 107.328 70.1611 108.999 75.797 108.999C76.4344 109.015 77.0687 108.904 77.6624 108.671C78.256 108.438 78.7972 108.089 79.2538 107.644C79.7104 107.199 80.0733 106.667 80.3211 106.08C80.5688 105.492 80.6965 104.861 80.6965 104.223C80.6965 103.586 80.5688 102.954 80.3211 102.367C80.0733 101.779 79.7104 101.247 79.2538 100.802C78.7972 100.357 78.256 100.008 77.6624 99.7753C77.0687 99.5426 76.4344 99.4312 75.797 99.4475C72.0503 99.4475 68.3877 98.3364 65.2723 96.2548C62.157 94.1732 59.7289 91.2146 58.2951 87.7531C56.8613 84.2915 56.4861 80.4825 57.2171 76.8078C57.948 73.133 59.7523 69.7575 62.4016 67.1082C65.051 64.4588 68.4265 62.6546 72.1012 61.9236C75.776 61.1927 79.585 61.5678 83.0465 63.0017C86.5081 64.4355 89.4667 66.8636 91.5483 69.9789C93.6298 73.0942 94.7409 76.7568 94.7409 80.5036C94.7409 80.8314 94.7409 81.153 94.7159 81.4746C94.3194 80.516 93.929 79.5325 93.57 78.5645C93.1112 77.4001 92.2138 76.4622 91.0707 75.9525C89.9277 75.4429 88.6303 75.4021 87.4575 75.839C86.2847 76.2758 85.3302 77.1555 84.7992 78.2888C84.2682 79.4221 84.2031 80.7185 84.6179 81.8993C84.6679 82.0273 85.8232 85.1248 87.3001 88.3752C90.0322 94.3828 91.8901 96.8059 94.4099 97.6926C94.9987 97.8965 95.614 98.0133 96.2366 98.0392C98.7064 98.1391 101.688 96.8839 106.119 93.98C109.154 91.9848 111.786 89.8959 111.899 89.8084C112.39 89.4184 112.8 88.9352 113.105 88.3866C113.41 87.8379 113.603 87.2346 113.675 86.6111C113.746 85.9876 113.694 85.3561 113.521 84.7528C113.348 84.1495 113.058 83.5862 112.667 83.0952V83.0952ZM109.607 90.4048C107.459 91.938 103.262 95.1354 99.7743 96.5842C98.3064 97.2021 96.6792 97.3335 95.1312 96.9589C91.3124 95.8441 88.4086 89.6867 85.9481 84.0881C84.8896 81.6745 84.9926 78.4989 87.4843 77.6371C90.1478 76.716 91.6684 78.2804 92.4022 80.8127C93.5263 84.7032 94.5504 85.7274 95.3716 85.4214C97.0109 84.7032 96.0273 76.7066 94.5848 73.4718C91.7746 67.1925 85.7451 60.8758 76.1186 60.7384C67.3102 60.6135 56.5783 66.7054 55.9444 80.6066C55.5416 89.3682 58.5017 97.5053 68.7465 101.287C72.6964 102.745 75.3661 101.911 77.0397 102.223C78.4823 102.492 79.7563 103.538 79.5658 104.612C78.7977 108.968 73.4552 108.165 70.5544 107.616C58.2644 105.296 49.0813 96.3375 48.844 81.534C48.588 65.8249 62.1987 53.3976 76.2217 54.4998C92.5895 55.7862 97.9133 64.6758 100.492 73.0346C103.053 81.331 100.286 86.8609 101.62 87.476C103.112 88.1629 104.43 86.2801 107.012 84.2661C109.469 82.3552 111.177 82.7049 112.061 83.8571C113.316 85.5026 112.573 88.2847 109.607 90.4048Z" fill="url(#paint18_linear_2040_183)"/>
<defs>
<linearGradient id="paint0_linear_2040_183" x1="248842" y1="49106.6" x2="248842" y2="100277" gradientUnits="userSpaceOnUse">
<stop stop-color="#D9923C"/>
<stop offset="1" stop-color="#BD6519"/>
</linearGradient>
<linearGradient id="paint1_linear_2040_183" x1="212706" y1="21866.4" x2="227133" y2="52937.3" gradientUnits="userSpaceOnUse">
<stop stop-color="#FFD37E"/>
<stop offset="1"/>
</linearGradient>
<radialGradient id="paint2_radial_2040_183" cx="0" cy="0" r="1" gradientUnits="userSpaceOnUse" gradientTransform="translate(183278 13533.2) scale(31365 20899.9)">
<stop stop-color="#FFD37E"/>
<stop offset="1"/>
</radialGradient>
<linearGradient id="paint3_linear_2040_183" x1="230738" y1="-8979.52" x2="254499" y2="79722.8" gradientUnits="userSpaceOnUse">
<stop stop-color="white"/>
<stop offset="1" stop-color="#BD6519"/>
</linearGradient>
<radialGradient id="paint4_radial_2040_183" cx="0" cy="0" r="1" gradientUnits="userSpaceOnUse" gradientTransform="translate(221734 48029.2) scale(33431.2 19314.8)">
<stop stop-color="#A95C19"/>
<stop offset="1" stop-color="white"/>
</radialGradient>
<linearGradient id="paint5_linear_2040_183" x1="197255" y1="58230.7" x2="214455" y2="79701.6" gradientUnits="userSpaceOnUse">
<stop stop-color="#8B4519"/>
<stop offset="1" stop-color="white"/>
</linearGradient>
<linearGradient id="paint6_linear_2040_183" x1="188641" y1="54941.1" x2="205444" y2="79669.4" gradientUnits="userSpaceOnUse">
<stop stop-color="#8B4519"/>
<stop offset="1" stop-color="white"/>
</linearGradient>
<linearGradient id="paint7_linear_2040_183" x1="174560" y1="36317.2" x2="179102" y2="62918" gradientUnits="userSpaceOnUse">
<stop stop-color="#32A9E5"/>
<stop offset="1" stop-color="#007FC3"/>
</linearGradient>
<linearGradient id="paint8_linear_2040_183" x1="49568.8" y1="9073.97" x2="50837.5" y2="13760.9" gradientUnits="userSpaceOnUse">
<stop stop-color="#35B5FF"/>
<stop offset="1"/>
</linearGradient>
<linearGradient id="paint9_linear_2040_183" x1="133544" y1="14466.3" x2="135154" y2="23140.6" gradientUnits="userSpaceOnUse">
<stop stop-color="#35B5FF"/>
<stop offset="1"/>
</linearGradient>
<linearGradient id="paint10_linear_2040_183" x1="158111" y1="26640.9" x2="157687" y2="21306.3" gradientUnits="userSpaceOnUse">
<stop stop-color="white"/>
<stop offset="1" stop-color="#0072B5"/>
</linearGradient>
<linearGradient id="paint11_linear_2040_183" x1="160746" y1="-7294.32" x2="173698" y2="35581.6" gradientUnits="userSpaceOnUse">
<stop stop-color="white"/>
<stop offset="1" stop-color="#0072B5"/>
</linearGradient>
<radialGradient id="paint12_radial_2040_183" cx="0" cy="0" r="1" gradientUnits="userSpaceOnUse" gradientTransform="translate(176058 40076.8) scale(28301.9 20509.6)">
<stop stop-color="#00639F"/>
<stop offset="1" stop-color="white"/>
</radialGradient>
<linearGradient id="paint13_linear_2040_183" x1="110966" y1="11819.8" x2="112592" y2="21859.7" gradientUnits="userSpaceOnUse">
<stop stop-color="white"/>
<stop offset="1" stop-color="#0072B5"/>
</linearGradient>
<linearGradient id="paint14_linear_2040_183" x1="106241" y1="13162.9" x2="107767" y2="19592.6" gradientUnits="userSpaceOnUse">
<stop stop-color="white"/>
<stop offset="1" stop-color="#0072B5"/>
</linearGradient>
<linearGradient id="paint15_linear_2040_183" x1="103522" y1="10909.5" x2="104155" y2="16548.4" gradientUnits="userSpaceOnUse">
<stop stop-color="white"/>
<stop offset="1" stop-color="#0072B5"/>
</linearGradient>
<linearGradient id="paint16_linear_2040_183" x1="99988.2" y1="15452.5" x2="102673" y2="23853.1" gradientUnits="userSpaceOnUse">
<stop stop-color="#F9C849"/>
<stop offset="1" stop-color="#ED7C18"/>
</linearGradient>
<linearGradient id="paint17_linear_2040_183" x1="41371.8" y1="10671.9" x2="41698.8" y2="9148.78" gradientUnits="userSpaceOnUse">
<stop stop-color="#FFEA7E"/>
<stop offset="1"/>
</linearGradient>
<linearGradient id="paint18_linear_2040_183" x1="102502" y1="8795.23" x2="102566" y2="14852.1" gradientUnits="userSpaceOnUse">
<stop stop-color="white"/>
<stop offset="1" stop-color="#BD6F31"/>
</linearGradient>
</defs>
</svg>
