<svg width="161" height="161" viewBox="0 0 161 161" fill="none" xmlns="http://www.w3.org/2000/svg">
<path d="M80.4974 0.000198996C99.1216 -0.000406094 117.17 6.45676 131.567 18.2714C145.964 30.0861 155.819 46.5273 159.453 64.7935C163.087 83.0598 160.274 102.021 151.495 118.446C142.716 134.871 128.513 147.744 111.307 154.872C94.1006 161.999 74.9551 162.94 57.1328 157.534C39.3105 152.128 23.9141 140.709 13.567 125.224C3.21989 109.738 -1.43773 91.1443 0.387757 72.6097C2.21324 54.0752 10.4089 36.7471 23.5782 23.5778C31.0353 16.0792 39.9057 10.1343 49.6759 6.08715C59.4462 2.04003 69.9221 -0.0288935 80.4974 0.000198996V0.000198996Z" fill="url(#paint0_linear_2040_159)"/>
<path style="mix-blend-mode:screen" opacity="0.5" d="M129.883 25.1042C130.672 25.1032 131.454 25.2582 132.183 25.5605C132.913 25.8627 133.575 26.3061 134.132 26.8653C148.232 41.1165 156.117 60.3698 156.063 80.4172C156.01 100.465 148.022 119.676 133.846 133.851C119.671 148.027 100.46 156.015 80.4124 156.068C60.365 156.122 41.1116 148.237 26.8604 134.137C19.0453 126.368 13.0323 116.977 9.24669 106.628C8.69889 105.132 8.76796 103.479 9.43874 102.034C10.1095 100.588 11.327 99.4683 12.8234 98.9205C14.3199 98.3727 15.9726 98.4417 17.4181 99.1125C18.8636 99.7833 19.9834 101.001 20.5312 102.497C23.82 111.466 29.0791 119.582 35.9211 126.249C42.7631 132.915 51.0136 137.961 60.0647 141.016C69.1159 144.07 78.737 145.055 88.2192 143.897C97.7015 142.74 106.803 139.469 114.854 134.327C122.904 129.185 129.699 122.302 134.736 114.186C139.773 106.07 142.926 96.9262 143.96 87.4298C144.995 77.9334 143.886 68.3258 140.714 59.315C137.543 50.3042 132.39 42.1197 125.636 35.3646C124.797 34.524 124.226 33.4537 123.994 32.2887C123.763 31.1237 123.882 29.9162 124.336 28.8188C124.791 27.7214 125.56 26.7832 126.547 26.1227C127.534 25.4621 128.695 25.1088 129.883 25.1073L129.883 25.1042Z" fill="url(#paint1_linear_2040_159)"/>
<path style="mix-blend-mode:screen" opacity="0.8" d="M157.306 74.5544C157.306 95.5623 148.913 115.315 133.669 130.168C118.425 145.022 98.1637 153.206 76.6063 153.206C59.3642 153.206 42.9495 147.966 29.27 138.268C40.4011 148.139 54.1466 154.583 68.8534 156.827C83.5603 159.071 98.6023 157.019 112.17 150.917C125.739 144.815 137.255 134.923 145.335 122.431C153.415 109.94 157.714 95.3798 157.715 80.5027C157.715 77.7042 157.565 74.9076 157.265 72.1251C157.29 72.9276 157.306 73.7395 157.306 74.5544Z" fill="url(#paint2_radial_2040_159)"/>
<path style="mix-blend-mode:multiply" opacity="0.5" d="M23.5819 137.413C36.7501 150.58 54.0762 158.773 72.6083 160.598C91.1404 162.423 109.732 157.765 125.215 147.419C140.698 137.073 152.115 121.678 157.52 103.858C162.925 86.0383 161.984 66.8954 154.858 49.6913C147.731 32.4872 134.86 18.2863 118.437 9.5082C102.014 0.7301 83.0559 -2.08207 64.792 1.55083C46.5281 5.18373 30.0888 15.0369 18.2753 29.4316C6.46165 43.8263 0.00460656 61.8718 0.00431393 80.4935C-0.0242612 91.0687 2.0449 101.544 6.09199 111.315C10.1391 121.085 16.0838 129.955 23.5819 137.413V137.413ZM26.3141 29.1854C41.0333 14.9876 60.6048 7.16903 81.4222 7.16903C102.24 7.16903 121.811 14.9751 136.53 29.1854C151.25 43.3957 159.355 62.2615 159.355 82.3389C159.355 102.416 151.237 121.295 136.53 135.492C121.824 149.69 102.24 157.496 81.4222 157.496C60.6048 157.496 41.0333 149.69 26.3141 135.48C11.5949 121.27 3.48586 102.404 3.48586 82.3264C3.48586 62.249 11.5949 43.3832 26.3141 29.1854V29.1854Z" fill="url(#paint3_linear_2040_159)"/>
<path style="mix-blend-mode:multiply" d="M25.6073 27.8551C40.3265 13.6573 60.5007 5.52957 81.3181 5.52957C101.533 5.52957 122.488 13.5168 135.249 26.0128C135.249 24.4766 135.208 22.9403 135.149 21.401C124.037 11.1257 110.252 4.19139 95.378 1.39366C80.5037 -1.40408 65.1421 0.0481239 51.0556 5.58361C36.9691 11.1191 24.7285 20.5136 15.7382 32.6893C6.74798 44.8649 1.37233 59.3284 0.228054 74.4201C1.02324 75.6337 1.8382 76.8307 2.67294 78.0109C4.64633 55.0297 11.6437 41.3222 25.6073 27.8551Z" fill="url(#paint4_radial_2040_159)"/>
<path style="mix-blend-mode:multiply" opacity="0.3" d="M80.2687 15.1563C96.5397 15.1563 111.837 21.7634 123.34 33.7598C134.843 45.7563 141.181 61.7058 141.181 78.6732C141.181 95.6406 134.846 111.587 123.34 123.583C111.833 135.58 96.9894 140.916 80.7183 140.916C64.4472 140.916 48.7007 135.58 37.1944 123.583C25.6882 111.587 19.3559 95.6374 19.3559 78.6732C19.3559 61.7089 24.33 45.3597 35.8331 33.3633C47.3362 21.3668 63.9976 15.1563 80.2687 15.1563Z" fill="url(#paint5_linear_2040_159)"/>
<path style="mix-blend-mode:multiply" opacity="0.5" d="M80.2702 17.204C96.0105 17.204 110.811 23.5957 121.939 35.2019C133.068 46.808 139.2 62.2392 139.2 78.6508C139.2 95.0623 133.071 110.5 121.939 122.1C110.808 133.7 96.4445 138.867 80.7042 138.867C64.9639 138.867 49.7295 133.706 38.6011 122.1C27.4727 110.493 21.3402 95.0623 21.3402 78.6507C21.3402 62.2391 26.1519 46.4239 37.2834 34.8178C48.415 23.2116 64.5299 17.204 80.2702 17.204Z" fill="url(#paint6_linear_2040_159)"/>
<path d="M80.4975 23.7586C93.6233 23.7592 106.343 28.3109 116.489 36.6381C126.635 44.9654 133.58 56.553 136.14 69.4267C138.701 82.3003 136.718 95.6635 130.53 107.239C124.343 118.815 114.333 127.887 102.206 132.91C90.0792 137.933 76.586 138.596 64.0255 134.785C51.4649 130.975 40.6141 122.927 33.3218 112.014C26.0295 101.1 22.747 87.9953 24.0335 74.9327C25.32 61.8702 31.0959 49.6578 40.3772 40.3763C45.6335 35.0911 51.886 30.9009 58.7727 28.0485C65.6594 25.196 73.0435 23.7379 80.4975 23.7586V23.7586Z" fill="url(#paint7_linear_2040_159)"/>
<path style="mix-blend-mode:screen" opacity="0.6" d="M85.6227 55.5078C97.488 54.9052 108.654 58.3648 117.05 65.2529C125.446 72.1411 130.068 81.624 130.068 91.9655C130.068 102.307 125.443 112.261 117.05 119.999C108.657 127.736 97.4942 132.326 85.6227 132.929C73.7511 133.532 62.5884 130.069 54.1921 123.184C45.7958 116.299 41.1746 106.81 41.1746 96.4712C41.1746 86.1328 45.799 76.1753 54.1921 68.4379C62.5853 60.7004 73.748 56.1073 85.6227 55.5078Z" fill="url(#paint8_linear_2040_159)"/>
<path style="mix-blend-mode:multiply" opacity="0.3" d="M89.3941 62.2611C105.899 62.2611 121.421 67.5692 133.14 77.2082C131.388 67.5567 126.476 58.664 118.873 51.6041C109.212 42.6302 96.4165 36.8662 82.7527 36.8662C69.0888 36.8662 56.1931 42.6302 46.5323 51.6041C36.8714 60.5781 31.5445 72.5245 31.5445 85.2048C31.5442 87.9542 31.7961 90.6978 32.297 93.4012C39.3319 68.4092 72.7889 62.2611 89.3941 62.2611Z" fill="url(#paint9_linear_2040_159)"/>
<path style="mix-blend-mode:multiply" opacity="0.4" d="M40.3792 120.613C49.661 129.895 61.874 135.672 74.9375 136.959C88.0009 138.246 101.106 134.963 112.021 127.67C122.935 120.378 130.984 109.526 134.794 96.965C138.605 84.4037 137.942 70.9096 132.919 58.7821C127.896 46.6546 118.823 36.644 107.246 30.456C95.6699 24.2679 82.3058 22.2854 69.4314 24.846C56.5569 27.4067 44.9687 34.3522 36.641 44.499C28.3134 54.6459 23.7617 67.3664 23.7615 80.493C23.741 87.947 25.1991 95.3311 28.0516 102.218C30.904 109.104 35.094 115.357 40.3792 120.613V120.613ZM45.884 50.3957C55.6136 41.0721 68.5499 35.9356 82.3074 35.9356C96.0649 35.9356 109.004 41.0721 118.734 50.3957C128.463 59.7194 134.162 71.6284 134.162 84.8051C134.162 97.9818 128.804 110.387 119.074 119.708C109.345 129.028 96.4084 134.168 82.6477 134.168C68.8871 134.168 55.9539 129.031 46.2244 119.708C36.4948 110.384 31.1367 97.9912 31.1367 84.8051C31.1367 71.619 36.1545 59.71 45.884 50.3957Z" fill="url(#paint10_linear_2040_159)"/>
<path style="mix-blend-mode:multiply" d="M43.7346 47.7233C53.4641 38.3997 66.4691 32.3609 81.8284 32.67C95.586 32.9448 118.801 39.1897 133.14 59.6698C132.718 56.3413 125.355 43.8328 119.245 39.0617C111.167 31.5085 101.058 26.4808 90.1609 24.5967C79.2637 22.7127 68.0535 24.0544 57.9088 28.457C47.764 32.8596 39.1271 40.131 33.0602 49.3771C26.9932 58.6232 23.7607 69.4408 23.7602 80.4997C23.7602 82.2889 23.8477 84.0655 24.01 85.8266C24.0381 89.7172 26.6298 99.6871 28.3377 103.031C23.7665 72.6436 34.005 57.047 43.7346 47.7233Z" fill="url(#paint11_radial_2040_159)"/>
<path d="M95.4505 128.217C99.2474 129.153 106.307 124.532 106.51 121.869C106.779 118.372 102.004 119.002 96.8837 121.663C92.7995 123.773 92.9931 127.605 95.4505 128.217Z" fill="#E5FFFF"/>
<path d="M113.323 117.217C116.061 117.014 118.088 114.866 117.638 113.045C117.048 110.656 114.472 111.034 112.514 112.973C110.216 115.24 111.55 117.345 113.323 117.217Z" fill="#E5FFFF"/>
<path style="mix-blend-mode:multiply" opacity="0.2" d="M93.2378 42.256C95.1277 42.2541 96.9949 42.6678 98.7071 43.4678C100.419 44.2679 101.935 45.4347 103.146 46.8856C104.357 48.3364 105.234 50.0359 105.715 51.8635C106.197 53.6911 106.27 55.6022 105.93 57.4614C105.591 59.3205 104.847 61.0823 103.75 62.6218C102.654 64.1613 101.233 65.4409 99.587 66.37C97.9412 67.299 96.1112 67.8548 94.2267 67.9979C92.3422 68.141 90.4493 67.868 88.6821 67.1981C84.1514 70.3674 76.7294 75.6287 72.0894 79.2445C72.2206 79.9564 72.2895 80.6783 72.2955 81.4021C75.5709 83.5254 80.1641 86.2388 84.6167 88.8679L85.0413 89.1177L87.2708 90.4354C88.619 89.9754 90.0334 89.7392 91.4579 89.7359C93.9712 89.7353 96.4298 90.4694 98.5312 91.848C100.633 93.2266 102.285 95.1894 103.286 97.495C104.286 99.8006 104.59 102.348 104.162 104.825C103.733 107.301 102.589 109.598 100.872 111.433C99.1546 113.268 96.9383 114.561 94.4957 115.153C92.053 115.744 89.4907 115.609 87.124 114.763C84.7573 113.918 82.6895 112.398 81.175 110.393C79.6604 108.387 78.7653 105.982 78.5997 103.475C74.4156 100.846 68.714 97.1767 63.7525 93.6827C62.3578 94.1778 60.8891 94.4323 59.4091 94.4352C56.0258 94.3826 52.7988 93.0016 50.4249 90.5903C48.0509 88.1791 46.7203 84.9311 46.7203 81.5473C46.7203 78.1636 48.0509 74.9155 50.4249 72.5043C52.7988 70.0931 56.0258 68.7121 59.4091 68.6594C60.2477 68.6604 61.0842 68.742 61.9071 68.903C68.8951 63.2388 77.1009 57.5247 80.3545 55.2953L80.3545 55.1392C80.3603 51.7241 81.7195 48.4506 84.1343 46.0358C86.5491 43.621 89.8227 42.2618 93.2378 42.256V42.256Z" fill="url(#paint12_linear_2040_159)"/>
<path style="mix-blend-mode:multiply" opacity="0.3" d="M93.2354 43.7328C94.9407 43.7314 96.6247 44.1122 98.1634 44.8472C99.7022 45.5822 101.057 46.6527 102.127 47.98C103.198 49.3073 103.958 50.8577 104.35 52.5172C104.743 54.1766 104.759 55.903 104.397 57.5694C104.034 59.2358 103.303 60.7998 102.257 62.1465C101.211 63.4932 99.8764 64.5884 98.3514 65.3514C96.8263 66.1145 95.1497 66.5262 93.4446 66.5561C91.7396 66.586 90.0495 66.2334 88.4987 65.5243C83.4153 69.0745 75.1658 74.9104 70.4478 78.6573C70.6952 79.6033 70.8201 80.5772 70.8194 81.555C70.8194 81.7642 70.8194 81.9765 70.8006 82.1795C74.1385 84.3839 79.0876 87.3065 83.8837 90.1417L84.1241 90.2822L87.1248 92.0558C89.3877 91.1276 91.8889 90.951 94.2598 91.552C96.6307 92.1529 98.7457 93.4997 100.293 95.3937C101.841 97.2877 102.739 99.6288 102.855 102.072C102.972 104.515 102.3 106.931 100.939 108.963C99.5788 110.996 97.6012 112.537 95.2982 113.361C92.9951 114.184 90.4884 114.246 88.1476 113.537C85.8067 112.828 83.7556 111.386 82.2964 109.423C80.8373 107.46 80.0474 105.08 80.0431 102.635C75.4375 99.7526 69.2082 95.7653 63.9531 92.0183C62.2855 92.7418 60.4692 93.0564 58.6554 92.936C56.8415 92.8157 55.0827 92.2638 53.5253 91.3263C51.9679 90.3888 50.657 89.0928 49.7017 87.5463C48.7463 85.9998 48.1742 84.2475 48.033 82.4352C47.8918 80.6229 48.1855 78.8031 48.8897 77.1272C49.594 75.4514 50.6883 73.968 52.0817 72.8006C53.475 71.6331 55.1271 70.8155 56.9004 70.4156C58.6736 70.0156 60.5168 70.0451 62.2763 70.5015C68.3245 65.5555 76.1588 59.9289 81.8604 56.0508C81.8385 55.7386 81.826 55.4263 81.826 55.139C81.8301 52.1146 83.0336 49.2153 85.1725 47.077C87.3114 44.9387 90.211 43.7361 93.2354 43.7328V43.7328Z" fill="url(#paint13_linear_2040_159)"/>
<path style="mix-blend-mode:multiply" opacity="0.4" d="M93.2348 45.2072C94.7522 45.211 96.2486 45.5622 97.6093 46.234C98.9699 46.9057 100.159 47.88 101.084 49.0823C102.01 50.2846 102.648 51.6829 102.95 53.1701C103.252 54.6572 103.209 56.1937 102.825 57.6617C102.441 59.1297 101.725 60.4903 100.734 61.6391C99.7427 62.7879 98.5015 63.6945 97.1055 64.2893C95.7095 64.8841 94.1958 65.1513 92.6805 65.0705C91.1652 64.9897 89.6886 64.5631 88.3638 63.8232C82.8433 67.67 73.4666 74.2896 68.7267 78.1521C69.1295 79.2459 69.3346 80.4025 69.3324 81.5681C69.331 82.0266 69.2987 82.4846 69.2356 82.9388C72.5891 85.2151 77.9441 88.375 83.1274 91.435C84.4451 92.2156 85.7534 92.9963 87.018 93.7394C88.9533 92.7764 91.1497 92.4706 93.2745 92.8684C95.3992 93.2661 97.3363 94.3458 98.7922 95.9436C100.248 97.5415 101.143 99.5704 101.342 101.723C101.541 103.875 101.033 106.034 99.8944 107.872C98.756 109.709 97.0495 111.126 95.0337 111.906C93.0178 112.686 90.8025 112.788 88.7235 112.196C86.6445 111.604 84.8152 110.35 83.513 108.625C82.2107 106.9 81.5064 104.797 81.5069 102.635C81.5069 102.382 81.5069 102.123 81.5381 101.861C76.5671 98.7603 69.6728 94.367 64.0867 90.3297C62.7543 91.0432 61.2767 91.4434 59.7663 91.4999C58.256 91.5564 56.7526 91.2677 55.3706 90.6557C53.9887 90.0437 52.7645 89.1246 51.7912 87.9683C50.8179 86.812 50.1211 85.4489 49.7539 83.9827C49.3867 82.5166 49.3587 80.986 49.6721 79.5074C49.9854 78.0289 50.6319 76.6413 51.5623 75.4501C52.4927 74.259 53.6824 73.2958 55.0411 72.6337C56.3998 71.9716 57.8916 71.6281 59.403 71.6293C60.4909 71.628 61.5714 71.8074 62.6004 72.1601C68.9609 66.8988 77.6569 60.6851 83.4303 56.7852C83.3422 56.2474 83.2973 55.7034 83.296 55.1584C83.296 52.5213 84.3427 49.9921 86.2063 48.1262C88.0698 46.2604 90.5977 45.2105 93.2348 45.2072Z" fill="url(#paint14_linear_2040_159)"/>
<path d="M59.3941 90.7545C61.0655 90.7525 62.7046 90.2936 64.134 89.4274C70.0667 93.727 77.6386 98.5387 82.3192 101.452C82.2706 101.836 82.2455 102.223 82.2442 102.61C82.2422 104.629 82.904 106.591 84.1275 108.196C85.351 109.801 87.0684 110.959 89.015 111.492C90.9615 112.025 93.0292 111.902 94.8995 111.144C96.7697 110.386 98.3386 109.033 99.3645 107.295C100.39 105.558 100.816 103.53 100.577 101.527C100.337 99.5228 99.4447 97.6534 98.0378 96.2065C96.6309 94.7597 94.7872 93.8156 92.7908 93.5199C90.7945 93.2242 88.7563 93.5932 86.9903 94.5701C80.4551 90.6827 72.6552 86.1926 68.4274 83.27C68.5329 82.7047 68.5862 82.1308 68.5866 81.5558C68.5877 80.3027 68.3327 79.0627 67.8372 77.9118C72.5646 73.9932 82.8063 66.7772 88.3268 62.9241C90.1294 64.0582 92.2691 64.5331 94.3822 64.2681C96.4953 64.003 98.4515 63.0145 99.9182 61.4703C101.385 59.9262 102.272 57.9219 102.428 55.7979C102.584 53.674 102 51.5615 100.775 49.8195C99.5494 48.0775 97.7588 46.8136 95.7072 46.2424C93.6555 45.6713 91.4694 45.8282 89.5203 46.6865C87.5713 47.5448 85.9795 49.0515 85.0157 50.9506C84.0519 52.8497 83.7754 55.024 84.2332 57.1038C78.3505 61.06 69.183 67.6047 62.732 72.9753C61.4725 72.4845 60.1203 72.2774 58.7716 72.3686C57.4229 72.4599 56.111 72.8472 54.929 73.5031C53.747 74.159 52.7242 75.0674 51.9332 76.1635C51.1421 77.2597 50.6024 78.5167 50.3524 79.8451C50.1024 81.1735 50.1483 82.5407 50.4867 83.8494C50.8252 85.1582 51.4479 86.3762 52.3105 87.4169C53.1732 88.4576 54.2546 89.2954 55.4779 89.8706C56.7011 90.4459 58.0361 90.7444 59.3879 90.7451L59.3941 90.7545Z" fill="url(#paint15_linear_2040_159)"/>
<path style="mix-blend-mode:multiply" d="M84.2176 100.561C83.5588 99.6242 65.2081 87.4467 64.2121 87.2937C63.216 87.1407 61.2457 89.1671 56.4653 87.1438C49.4647 84.1743 51.9658 75.4908 55.6722 74.0295C60.9085 71.9468 62.4854 74.2574 63.0318 73.8078C73.5982 65.1243 84.6766 58.589 85.273 57.543C85.5852 57.009 84.3363 54.5548 85.8819 51.1794C86.4835 49.7942 87.4826 48.6187 88.7527 47.8016C90.0227 46.9845 91.5067 46.5627 93.0167 46.5894C97.7191 46.4239 100.823 49.9617 100.823 54.0583C100.823 58.155 97.3194 62.5732 93.2352 62.5732C90.0441 62.7294 89.3478 60.5905 88.2175 60.681C87.0871 60.7716 66.6413 76.1184 65.92 76.9459C65.7452 77.1488 66.71 78.5071 67.0816 80.1558C67.4532 81.8044 66.8068 83.4187 67.3033 83.8621C67.7498 84.2587 76.5395 89.1703 81.9788 92.3833C85.4635 94.3192 86.3253 95.5619 87.0122 95.5369C87.6991 95.5119 87.9489 94.2099 91.7708 94.3192C95.8675 94.3192 99.4614 97.5291 99.5145 102.397C99.5145 106.494 95.7832 110.131 91.4398 109.422C83.6118 108.161 84.8796 101.491 84.2176 100.561ZM91.443 111.824C92.8472 111.824 94.2329 111.502 95.4938 110.884C96.7546 110.266 97.8573 109.367 98.7173 108.257C99.5774 107.147 100.172 105.855 100.455 104.48C100.739 103.104 100.704 101.682 100.353 100.323C100.002 98.9628 99.3447 97.7014 98.4311 96.635C97.5175 95.5686 96.3719 94.7254 95.0821 94.1701C93.7923 93.6147 92.3925 93.362 90.9899 93.4311C89.5874 93.5002 88.2193 93.8895 86.9903 94.569C80.4551 90.6815 72.6552 86.1915 68.4274 83.2688C68.5329 82.7035 68.5862 82.1297 68.5866 81.5546C68.5877 80.3016 68.3327 79.0616 67.8372 77.9107C72.5646 73.992 82.8063 66.7761 88.3267 62.923C90.1294 64.057 92.2691 64.5319 94.3822 64.2669C96.4953 64.0019 98.4515 63.0133 99.9182 61.4692C101.385 59.9251 102.272 57.9207 102.428 55.7968C102.584 53.6728 102 51.5604 100.775 49.8184C99.5494 48.0764 97.7588 46.8124 95.7072 46.2413C93.6555 45.6701 91.4694 45.827 89.5203 46.6853C87.5713 47.5436 85.9795 49.0504 85.0157 50.9495C84.0519 52.8486 83.7754 55.0228 84.2332 57.1027C78.3505 61.0588 69.183 67.6035 62.732 72.9741C61.2764 72.4066 59.7003 72.2191 58.1521 72.4294C56.604 72.6397 55.135 73.2408 53.8835 74.1761C52.6321 75.1114 51.6394 76.35 50.9993 77.7752C50.3591 79.2004 50.0925 80.7651 50.2245 82.3219C50.3566 83.8786 50.8829 85.3761 51.754 86.673C52.625 87.97 53.8121 89.0238 55.2032 89.7349C56.5943 90.4461 58.1436 90.7912 59.705 90.7378C61.2665 90.6843 62.7885 90.2341 64.1278 89.4294C70.0604 93.729 77.6324 98.5407 82.3129 101.454C82.2643 101.838 82.2393 102.225 82.238 102.612C82.238 105.052 83.207 107.392 84.932 109.118C86.657 110.844 88.9968 111.813 91.4367 111.814L91.443 111.824Z" fill="url(#paint16_linear_2040_159)"/>
<path style="mix-blend-mode:screen" opacity="0.5" d="M87.0811 96.6614C88.2614 95.8496 91.5806 94.8909 94.2347 95.7028C96.8887 96.5146 99.6927 100.571 98.2938 104.63C96.895 108.689 92.6734 108.979 89.882 107.874C87.0905 106.769 85.4575 104.127 85.6042 100.424C85.4575 100.202 71.2191 90.6132 70.9287 90.3915C70.6383 90.1698 73.0676 87.956 73.0676 87.956L87.0811 96.6614Z" fill="url(#paint17_linear_2040_159)"/>
<path style="mix-blend-mode:screen" opacity="0.5" d="M60.0439 87.0723C64.4684 87.5188 66.7946 81.8703 64.8025 78.1077C64.3485 77.2518 63.7163 76.5032 62.9487 75.9121C62.181 75.3211 61.2956 74.9014 60.3521 74.6813C59.4086 74.4611 58.4289 74.4457 57.479 74.6361C56.529 74.8264 55.6309 75.218 54.845 75.7846C52.3501 77.5894 51.3041 86.1855 60.0439 87.0723Z" fill="url(#paint18_linear_2040_159)"/>
<path style="mix-blend-mode:screen" opacity="0.5" d="M96.7804 48.454C98.3759 49.6499 100.215 52.8816 99.5468 56.0884C98.8786 59.2952 95.1223 61.7338 92.7992 61.5121C90.4761 61.2904 89.3645 59.4076 88.4809 59.851C87.5972 60.2944 76.6437 68.1504 75.7569 68.2597C74.8701 68.369 74.5391 65.9366 74.5391 65.9366C74.5391 65.9366 86.2702 58.6332 86.7167 57.7496C87.1632 56.8659 84.9463 52.9909 87.9344 50.1151C90.9226 47.2394 94.5697 46.796 96.7804 48.454Z" fill="url(#paint19_linear_2040_159)"/>
<defs>
<linearGradient id="paint0_linear_2040_159" x1="-52291.2" y1="-253933" x2="-52291.2" y2="-305103" gradientUnits="userSpaceOnUse">
<stop stop-color="#D9923C"/>
<stop offset="1" stop-color="#BD6519"/>
</linearGradient>
<linearGradient id="paint1_linear_2040_159" x1="-32687.8" y1="-188414" x2="-47089.7" y2="-219435" gradientUnits="userSpaceOnUse">
<stop stop-color="#FFD37E"/>
<stop offset="1"/>
</linearGradient>
<radialGradient id="paint2_radial_2040_159" cx="0" cy="0" r="1" gradientUnits="userSpaceOnUse" gradientTransform="translate(-26438.1 -122340) rotate(-180) scale(31365 20899.1)">
<stop stop-color="#FFD37E"/>
<stop offset="1"/>
</radialGradient>
<linearGradient id="paint3_linear_2040_159" x1="-34210.1" y1="-195822" x2="-57971" y2="-284525" gradientUnits="userSpaceOnUse">
<stop stop-color="white"/>
<stop offset="1" stop-color="#BD6519"/>
</linearGradient>
<radialGradient id="paint4_radial_2040_159" cx="0" cy="0" r="1" gradientUnits="userSpaceOnUse" gradientTransform="translate(-56873.3 -147182) rotate(-180) scale(33431.2 19313.9)">
<stop stop-color="#A95C19"/>
<stop offset="1" stop-color="white"/>
</radialGradient>
<linearGradient id="paint5_linear_2040_159" x1="-48490.3" y1="-218187" x2="-65689.3" y2="-239658" gradientUnits="userSpaceOnUse">
<stop stop-color="#8B4519"/>
<stop offset="1" stop-color="white"/>
</linearGradient>
<linearGradient id="paint6_linear_2040_159" x1="-44713.6" y1="-209681" x2="-61515.9" y2="-234410" gradientUnits="userSpaceOnUse">
<stop stop-color="#8B4519"/>
<stop offset="1" stop-color="white"/>
</linearGradient>
<linearGradient id="paint7_linear_2040_159" x1="-35987.1" y1="-180627" x2="-40528.1" y2="-207229" gradientUnits="userSpaceOnUse">
<stop stop-color="#32A9E5"/>
<stop offset="1" stop-color="#007FC3"/>
</linearGradient>
<linearGradient id="paint8_linear_2040_159" x1="-25393.8" y1="-115852" x2="-27370.1" y2="-125738" gradientUnits="userSpaceOnUse">
<stop stop-color="#35B5FF"/>
<stop offset="1"/>
</linearGradient>
<linearGradient id="paint9_linear_2040_159" x1="-34086.1" y1="-98711.2" x2="-33625.5" y2="-92920" gradientUnits="userSpaceOnUse">
<stop stop-color="white"/>
<stop offset="1" stop-color="#0072B5"/>
</linearGradient>
<linearGradient id="paint10_linear_2040_159" x1="-22165.4" y1="-137024" x2="-35117.5" y2="-179900" gradientUnits="userSpaceOnUse">
<stop stop-color="white"/>
<stop offset="1" stop-color="#0072B5"/>
</linearGradient>
<radialGradient id="paint11_radial_2040_159" cx="0" cy="0" r="1" gradientUnits="userSpaceOnUse" gradientTransform="translate(-42474.5 -140836) rotate(-180) scale(28301.9 20509.6)">
<stop stop-color="#00639F"/>
<stop offset="1" stop-color="white"/>
</radialGradient>
<linearGradient id="paint12_linear_2040_159" x1="-17494.6" y1="-99667.5" x2="-20443.3" y2="-117101" gradientUnits="userSpaceOnUse">
<stop stop-color="white"/>
<stop offset="1" stop-color="#0072B5"/>
</linearGradient>
<linearGradient id="paint13_linear_2040_159" x1="-14421.4" y1="-101569" x2="-18378.1" y2="-110385" gradientUnits="userSpaceOnUse">
<stop stop-color="white"/>
<stop offset="1" stop-color="#0072B5"/>
</linearGradient>
<linearGradient id="paint14_linear_2040_159" x1="-15330.2" y1="-96198.2" x2="-16499.5" y2="-100626" gradientUnits="userSpaceOnUse">
<stop stop-color="white"/>
<stop offset="1" stop-color="#0072B5"/>
</linearGradient>
<linearGradient id="paint15_linear_2040_159" x1="-17126.8" y1="-103992" x2="-17912.9" y2="-110283" gradientUnits="userSpaceOnUse">
<stop stop-color="#F9C849"/>
<stop offset="1" stop-color="#ED7C18"/>
</linearGradient>
<linearGradient id="paint16_linear_2040_159" x1="-16475.8" y1="-93587.6" x2="-17268" y2="-100844" gradientUnits="userSpaceOnUse">
<stop stop-color="white"/>
<stop offset="1" stop-color="#BD6F31"/>
</linearGradient>
<linearGradient id="paint17_linear_2040_159" x1="-7604.92" y1="-31808.2" x2="-8612.5" y2="-32956.8" gradientUnits="userSpaceOnUse">
<stop stop-color="#FFEA7E"/>
<stop offset="1"/>
</linearGradient>
<linearGradient id="paint18_linear_2040_159" x1="-5120.37" y1="-20385" x2="-4731.01" y2="-20548.2" gradientUnits="userSpaceOnUse">
<stop stop-color="#FFEA7E"/>
<stop offset="1"/>
</linearGradient>
<linearGradient id="paint19_linear_2040_159" x1="-6200.54" y1="-34877.2" x2="-7657.61" y2="-35659" gradientUnits="userSpaceOnUse">
<stop stop-color="#FFEA7E"/>
<stop offset="1"/>
</linearGradient>
</defs>
</svg>
