<svg width="925" height="487" viewBox="0 0 925 487" fill="none" xmlns="http://www.w3.org/2000/svg">
<g filter="url(#filter0_d_2030_208)">
<path fill-rule="evenodd" clip-rule="evenodd" d="M844.048 265.855C844.048 265.855 924.894 320.369 918.661 346.304C912.428 372.239 814.487 390.081 814.487 390.081C814.487 390.081 783.502 478.294 755.01 480.937C726.519 483.58 677.904 402.47 677.904 402.47C677.904 402.47 578.004 402.47 566.43 378.186C554.855 353.903 623.057 285.844 623.057 285.844C623.057 285.844 592.25 197.63 613.619 179.954C634.988 162.279 725.806 201.429 725.806 201.429C725.806 201.429 806.652 146.916 831.226 160.296C855.801 173.677 844.048 265.855 844.048 265.855Z" fill="url(#paint0_linear_2030_208)"/>
<path fill-rule="evenodd" clip-rule="evenodd" d="M822.316 274.777C822.316 274.777 888.738 319.379 883.752 340.854C878.766 362.329 798.098 376.866 798.098 376.866C798.098 376.866 772.811 449.221 749.306 451.368C725.8 453.516 686.089 386.943 686.089 386.943C686.089 386.943 603.997 386.943 594.559 366.955C585.121 346.966 641.037 291.296 641.037 291.296C641.037 291.296 615.75 218.777 633.201 204.405C650.653 190.033 725.266 221.916 725.266 221.916C725.266 221.916 791.687 177.148 811.988 188.877C832.288 200.606 822.316 274.777 822.316 274.777Z" fill="url(#paint1_linear_2030_208)"/>
<path fill-rule="evenodd" clip-rule="evenodd" d="M817.869 276.428C817.869 276.428 881.62 319.212 876.634 339.696C871.648 360.18 794.72 374.057 794.72 374.057C794.72 374.057 770.501 443.438 748.064 445.42C725.627 447.403 687.519 383.804 687.519 383.804C687.519 383.804 608.81 383.803 599.906 364.641C591.002 345.478 644.247 292.122 644.247 292.122C644.247 292.122 620.028 222.74 636.945 209.525C653.863 196.31 724.914 226.044 724.914 226.044C724.914 226.044 788.665 183.259 807.897 193.006C827.129 202.752 817.869 276.428 817.869 276.428Z" fill="url(#paint2_radial_2030_208)"/>
<g style="mix-blend-mode:soft-light" opacity="0.5">
<path fill-rule="evenodd" clip-rule="evenodd" d="M641.752 311.283C641.752 311.283 609.699 344.322 614.507 357.207C619.315 370.092 693.928 371.414 693.928 371.414C693.928 371.414 729.543 413.207 747.35 414.198C765.158 415.189 786.527 359.85 786.527 359.85C786.527 359.85 853.839 354.894 867.016 341.844C857.42 351.177 845.824 358.541 832.973 363.464C820.122 368.386 806.302 370.757 792.403 370.423C792.403 370.423 767.295 439.639 746.46 441.786C725.625 443.934 688.407 379.673 688.407 379.673C688.407 379.673 618.424 390.246 603.466 365.136C593.85 348.452 641.752 311.283 641.752 311.283Z" fill="white"/>
</g>
<path fill-rule="evenodd" clip-rule="evenodd" d="M735.064 253.302C734.374 254.506 733.432 255.569 732.293 256.431C731.154 257.292 729.842 257.933 728.432 258.318C727.022 258.703 725.544 258.823 724.084 258.671C722.623 258.519 721.21 258.097 719.928 257.432C717.343 256.106 715.425 253.889 714.592 251.26C713.758 248.631 714.076 245.804 715.476 243.391C716.905 240.993 719.296 239.213 722.129 238.44C724.963 237.667 728.012 237.962 730.612 239.261C731.91 239.901 733.056 240.775 733.985 241.831C734.913 242.888 735.605 244.106 736.02 245.413C736.435 246.721 736.564 248.093 736.4 249.447C736.235 250.802 735.782 252.112 735.064 253.302Z" fill="white"/>
<path fill-rule="evenodd" clip-rule="evenodd" d="M188.907 193.667C188.907 193.667 276.876 149.56 299.314 165.914C321.751 182.268 296.999 271.968 296.999 271.968C296.999 271.968 369.475 335.898 359.681 360.842C349.887 385.786 249.987 391.568 249.987 391.568C249.987 391.568 206.893 475.321 178.757 474.164C150.621 473.008 113.404 386.943 113.404 386.943C113.404 386.943 14.3944 374.718 6.55911 349.278C-1.27617 323.839 75.8301 264.7 75.8301 264.7C75.8301 264.7 58.0225 173.348 81.5284 158.646C105.034 143.944 188.907 193.667 188.907 193.667Z" fill="url(#paint3_linear_2030_208)"/>
<path fill-rule="evenodd" clip-rule="evenodd" d="M188.016 216.297C188.016 216.297 260.136 179.954 278.656 193.335C297.176 206.715 276.697 280.557 276.697 280.557C276.697 280.557 336.174 333.088 328.161 353.407C320.148 373.726 238.233 378.682 238.233 378.682C238.233 378.682 202.618 447.402 179.291 446.576C155.963 445.75 125.868 375.047 125.868 375.047C125.868 375.047 44.4882 364.97 38.0776 343.991C31.6669 323.011 94.8831 274.61 94.8831 274.61C94.8831 274.61 79.925 199.778 99.5132 187.553C119.101 175.329 188.016 216.297 188.016 216.297Z" fill="url(#paint4_linear_2030_208)"/>
<path fill-rule="evenodd" clip-rule="evenodd" d="M187.837 219.93C187.837 219.93 256.93 185.241 274.738 198.126C292.545 211.011 272.779 281.548 272.779 281.548C272.779 281.548 329.763 331.106 322.106 351.425C314.448 371.743 235.917 375.543 235.917 375.543C235.917 375.543 202.083 441.62 179.468 440.629C156.852 439.638 128.182 372.074 128.182 372.074C128.182 372.074 50.1857 362.493 44.1311 342.339C38.0766 322.186 97.5535 276.262 97.5535 276.262C97.5535 276.262 83.3075 204.568 102.005 192.84C120.703 181.111 187.837 219.93 187.837 219.93Z" fill="url(#paint5_radial_2030_208)"/>
<g style="mix-blend-mode:soft-light" opacity="0.5">
<path fill-rule="evenodd" clip-rule="evenodd" d="M145.638 382.483C145.638 382.483 163.445 423.286 178.76 425.103C194.074 426.92 226.662 364.807 226.662 364.807C226.662 364.807 283.111 352.418 291.659 337.881C300.206 323.344 256.044 281.716 256.044 281.716C256.044 281.716 280.44 223.236 273.851 206.552C278.767 218.625 280.91 231.519 280.144 244.405C279.377 257.291 275.718 269.887 269.399 281.385C269.399 281.385 326.027 332.43 318.904 350.601C311.781 368.772 233.607 372.407 233.607 372.407C233.607 372.407 213.662 435.51 182.855 437.162C160.418 438.318 145.638 382.483 145.638 382.483Z" fill="white"/>
</g>
<path fill-rule="evenodd" clip-rule="evenodd" d="M129.786 279.402C131.47 281.67 132.133 284.458 131.634 287.173C131.135 289.888 129.514 292.316 127.115 293.939C124.698 295.491 121.721 296.101 118.823 295.638C115.926 295.174 113.34 293.674 111.623 291.461C110.757 290.354 110.135 289.101 109.792 287.771C109.449 286.442 109.392 285.063 109.623 283.713C109.855 282.363 110.371 281.069 111.142 279.904C111.912 278.739 112.923 277.726 114.116 276.923C116.561 275.362 119.567 274.747 122.494 275.209C125.42 275.672 128.037 277.177 129.786 279.402Z" fill="white"/>
<path fill-rule="evenodd" clip-rule="evenodd" d="M546.304 107.601C546.304 107.601 662.23 121.147 670.956 151.047C679.682 180.946 590.645 250.162 590.645 250.162C590.645 250.162 612.37 356.712 584.768 374.223C557.167 391.733 458.335 334.081 458.335 334.081C458.335 334.081 355.942 386.117 329.409 367.119C302.876 348.122 331.546 243.059 331.546 243.059C331.546 243.059 246.426 168.722 257.645 139.648C268.864 110.574 385.503 102.976 385.503 102.976C385.503 102.976 435.185 5.01631 468.663 6.00747C502.141 6.99863 546.304 107.601 546.304 107.601Z" fill="url(#paint6_linear_2030_208)"/>
<path fill-rule="evenodd" clip-rule="evenodd" d="M529.385 127.92C529.385 127.92 624.477 139.153 632.134 163.601C639.791 188.05 566.246 245.041 566.246 245.041C566.246 245.041 584.054 332.429 561.617 346.801C539.179 361.173 457.621 313.762 457.621 313.762C457.621 313.762 373.57 356.546 351.845 340.853C330.12 325.16 353.625 239.095 353.625 239.095C353.625 239.095 283.642 178.138 292.902 154.185C302.162 130.232 397.966 124.285 397.966 124.285C397.966 124.285 438.745 43.8358 466.169 44.4966C493.592 45.1573 529.385 127.92 529.385 127.92Z" fill="url(#paint7_linear_2030_208)"/>
<path fill-rule="evenodd" clip-rule="evenodd" d="M526.002 131.884C526.002 131.884 617.176 142.622 624.477 166.079C631.778 189.537 561.439 244.05 561.439 244.05C561.439 244.05 579.246 327.803 556.809 341.514C534.371 355.226 457.443 309.962 457.443 309.962C457.443 309.962 376.953 350.93 356.119 336.063C335.284 321.195 357.721 238.434 357.721 238.434C357.721 238.434 290.943 180.12 299.669 157.158C308.394 134.197 400.103 128.58 400.103 128.58C400.103 128.58 439.279 51.4352 465.634 52.2612C491.989 53.0871 526.002 131.884 526.002 131.884Z" fill="url(#paint8_radial_2030_208)"/>
<g style="mix-blend-mode:soft-light" opacity="0.5">
<path fill-rule="evenodd" clip-rule="evenodd" d="M366.808 259.579C366.808 259.579 353.63 309.137 366.808 320.701C379.985 332.264 455.845 293.774 455.845 293.774C455.845 293.774 518.527 317.727 537.225 309.468C555.923 301.208 544.348 233.314 544.348 233.314C544.348 233.314 610.414 193.171 615.578 172.853C611.37 187.409 603.94 200.993 593.761 212.739C583.582 224.486 570.878 234.137 556.457 241.077C556.457 241.077 572.662 325.326 552.717 338.046C532.773 350.766 455.489 305.007 455.489 305.007C455.489 305.007 390.313 352.253 359.863 334.412C339.562 321.692 366.808 259.579 366.808 259.579Z" fill="white"/>
</g>
<path fill-rule="evenodd" clip-rule="evenodd" d="M427.355 151.541C427.308 154.755 425.899 157.821 423.433 160.078C420.967 162.335 417.641 163.6 414.177 163.6C410.729 163.6 407.423 162.33 404.985 160.068C402.547 157.807 401.178 154.739 401.178 151.541C401.178 148.343 402.547 145.275 404.985 143.013C407.423 140.752 410.729 139.481 414.177 139.481C415.899 139.46 417.609 139.755 419.206 140.352C420.804 140.948 422.258 141.833 423.484 142.955C424.71 144.077 425.684 145.414 426.348 146.888C427.013 148.362 427.355 149.944 427.355 151.541Z" fill="white"/>
</g>
<defs>
<filter id="filter0_d_2030_208" x="0.916031" y="0.916031" width="923.172" height="485.168" filterUnits="userSpaceOnUse" color-interpolation-filters="sRGB">
<feFlood flood-opacity="0" result="BackgroundImageFix"/>
<feColorMatrix in="SourceAlpha" type="matrix" values="0 0 0 0 0 0 0 0 0 0 0 0 0 0 0 0 0 0 127 0" result="hardAlpha"/>
<feOffset/>
<feGaussianBlur stdDeviation="2.54198"/>
<feComposite in2="hardAlpha" operator="out"/>
<feColorMatrix type="matrix" values="0 0 0 0 0 0 0 0 0 0 0 0 0 0 0 0 0 0 0.7 0"/>
<feBlend mode="normal" in2="BackgroundImageFix" result="effect1_dropShadow_2030_208"/>
<feBlend mode="normal" in="SourceGraphic" in2="effect1_dropShadow_2030_208" result="shape"/>
</filter>
<linearGradient id="paint0_linear_2030_208" x1="744.58" y1="480.404" x2="738.166" y2="159.257" gradientUnits="userSpaceOnUse">
<stop stop-color="#C1BDF1"/>
<stop offset="1" stop-color="#FBF9FE"/>
</linearGradient>
<linearGradient id="paint1_linear_2030_208" x1="613.164" y1="235.236" x2="859.472" y2="380.963" gradientUnits="userSpaceOnUse">
<stop stop-color="#C44C25"/>
<stop offset="1" stop-color="#FF5E42"/>
</linearGradient>
<radialGradient id="paint2_radial_2030_208" cx="0" cy="0" r="1" gradientUnits="userSpaceOnUse" gradientTransform="translate(738.634 244.279) rotate(26.9826) scale(134.886 129.303)">
<stop stop-color="#FFC62D"/>
<stop offset="1" stop-color="#FF9200"/>
</radialGradient>
<linearGradient id="paint3_linear_2030_208" x1="331.374" y1="322.522" x2="25.5413" y2="173.135" gradientUnits="userSpaceOnUse">
<stop stop-color="#C1BDF1"/>
<stop offset="1" stop-color="#FBF9FE"/>
</linearGradient>
<linearGradient id="paint4_linear_2030_208" x1="37.2121" y1="326.436" x2="261.177" y2="153.56" gradientUnits="userSpaceOnUse">
<stop stop-color="#C44C25"/>
<stop offset="1" stop-color="#FF5E42"/>
</linearGradient>
<radialGradient id="paint5_radial_2030_208" cx="0" cy="0" r="1" gradientUnits="userSpaceOnUse" gradientTransform="translate(100.047 225.796) rotate(-33.5942) scale(133.335 129.826)">
<stop stop-color="#FFC62D"/>
<stop offset="1" stop-color="#FF9200"/>
</radialGradient>
<linearGradient id="paint6_linear_2030_208" x1="575.33" y1="379.674" x2="394.96" y2="42.8351" gradientUnits="userSpaceOnUse">
<stop stop-color="#C1BDF1"/>
<stop offset="1" stop-color="#FBF9FE"/>
</linearGradient>
<linearGradient id="paint7_linear_2030_208" x1="292.19" y1="197.135" x2="632.669" y2="197.135" gradientUnits="userSpaceOnUse">
<stop stop-color="#C44C25"/>
<stop offset="1" stop-color="#FF5E42"/>
</linearGradient>
<radialGradient id="paint8_radial_2030_208" cx="0" cy="0" r="1" gradientUnits="userSpaceOnUse" gradientTransform="translate(426.102 140.805) scale(160.267 148.674)">
<stop stop-color="#FFC62D"/>
<stop offset="1" stop-color="#FF9200"/>
</radialGradient>
</defs>
</svg>
