<svg width="51" height="34" viewBox="0 0 51 34" fill="none" xmlns="http://www.w3.org/2000/svg">
<path d="M8.23047 2.5918C11.2308 -0.0101031 14.8158 -0.515885 18.6943 0.466797C21.4497 1.16216 24.2186 1.76952 27.085 1.43652C28.8902 1.22756 30.673 0.832536 32.4424 0.427734C37.5777 -0.744183 41.6942 0.688687 44.6357 4.7041C46.7024 7.52162 47.8255 10.6858 48.7168 13.9277C49.7484 17.6919 50.5777 21.4887 50.5059 25.3965C50.4699 27.3879 50.124 29.3271 48.8867 31.0215C47.0715 33.4995 43.2744 34.1494 40.4961 32.3896C39.2752 31.616 38.0837 30.7019 37.1631 29.6475C35.2401 27.4372 32.824 26.2028 29.7715 25.9775C26.3762 25.7262 22.9906 25.6611 19.6084 26.2324C17.0259 26.6699 15.2329 28.0478 13.6201 29.8271C12.7517 30.7869 11.681 31.655 10.5352 32.334C6.84278 34.5213 2.73611 33.219 1.40723 29.3896C0.829358 27.7213 0.672086 25.9285 0.489258 25.0078V25.0049C0.799413 18.632 2.05003 13.3132 4.30273 8.1875C5.22339 6.09487 6.42838 4.1523 8.23047 2.5918ZM13.8389 15.1611C13.8389 16.1665 13.803 17.0776 13.8486 17.9883C13.9009 19.0493 14.6064 19.748 15.5303 19.7383L15.5312 19.7373C14.6087 19.7424 13.9047 19.045 13.8525 17.9883C13.8069 17.0776 13.8428 16.1665 13.8428 15.1611H13.8389ZM33.8652 15.9746C32.7063 15.9747 31.776 16.817 31.7891 17.8486C31.7921 18.0686 31.8483 18.2863 31.9434 18.4922C31.8496 18.2871 31.7942 18.0705 31.792 17.8516C31.779 16.8199 32.7092 15.9776 33.8682 15.9775C34.4279 15.9775 34.9372 16.1798 35.3086 16.5078C34.937 16.1782 34.4266 15.9746 33.8652 15.9746ZM15.8447 7.70215C15.3486 7.67956 14.7419 7.85174 14.3877 8.12598C14.0319 8.40025 13.9041 9.01719 13.8584 9.49707C13.7768 10.3459 13.8359 11.205 13.8359 12.0146C13.6798 12.0797 13.6273 12.1218 13.5752 12.1221C12.6578 12.1319 11.7397 12.1282 10.8223 12.1445C9.64385 12.1675 8.9125 12.736 8.88965 13.6338C8.86695 14.5477 9.62762 15.1512 10.8418 15.1611C10.843 15.1611 10.8445 15.1611 10.8457 15.1611C9.63138 15.148 8.87086 14.5478 8.89355 13.6338C8.91641 12.736 9.6476 12.1674 10.8262 12.1445C11.7435 12.1282 12.6608 12.1319 13.5781 12.1221C13.6304 12.1221 13.6831 12.0799 13.8398 12.0146C13.8398 11.205 13.7807 10.3459 13.8623 9.49707C13.908 9.01715 14.039 8.39695 14.3916 8.12598C14.745 7.85244 15.3494 7.68057 15.8447 7.70215ZM38.5117 11.7988C37.3431 11.789 36.4052 12.5886 36.3789 13.6201C36.3776 13.6725 36.3812 13.7248 36.3848 13.7764C36.3814 13.7259 36.3786 13.6752 36.3799 13.624C36.406 12.5956 37.3429 11.792 38.5117 11.8018V11.7988C39.5424 11.8084 40.4191 12.5621 40.4863 13.4688C40.421 12.5607 39.5436 11.8056 38.5117 11.7959V11.7988ZM20.0703 12.1602C19.1328 12.0683 18.1713 12.1404 17.1826 12.1406V12.1416C18.1712 12.1416 19.1328 12.0714 20.0703 12.1602ZM29.4834 11.7822C29.6094 11.7912 29.7342 11.8136 29.8555 11.8477C29.7344 11.8137 29.6102 11.7912 29.4844 11.7822H29.4834ZM32.7178 11.0469H32.7188H32.7178ZM35.875 9.88477C35.7408 10.4746 35.2878 10.963 34.6807 11.2002C35.3493 10.9399 35.8325 10.3764 35.9062 9.70508L35.875 9.88477ZM32.1465 10.543H32.1475H32.1465ZM31.8291 9.875H31.8301H31.8291ZM33.3848 7.67578C32.4755 7.86584 31.7949 8.61168 31.7891 9.5L31.8018 9.3125C31.9037 8.44653 32.6437 7.75228 33.583 7.64355L33.3848 7.67578Z" fill="#083B9B"/>
<path d="M13.3331 15.5598C12.3863 15.5598 11.5179 15.5663 10.6462 15.5598C9.55574 15.5467 8.8734 14.946 8.89299 14.0319C8.91584 13.134 9.5688 12.566 10.6299 12.5431C11.4526 12.5268 12.2753 12.5301 13.098 12.5203C13.1437 12.5203 13.1927 12.4778 13.3331 12.4125C13.3331 11.6029 13.2809 10.7442 13.3527 9.89537C13.3951 9.41545 13.5094 8.79514 13.8294 8.52416C14.1917 8.21074 14.8512 8.03117 15.3214 8.12259C15.9254 8.24012 16.3335 8.78534 16.3367 9.49707C16.34 10.4667 16.3367 11.4364 16.3367 12.5399C17.2607 12.5399 18.1617 12.4615 19.0367 12.5692C19.5656 12.6345 20.2283 12.8598 20.5352 13.2516C21.2731 14.1886 20.5679 15.4847 19.3371 15.5435C18.3609 15.5924 17.3814 15.5533 16.3367 15.5533C16.3367 16.5327 16.34 17.4175 16.3367 18.3022C16.3302 19.3763 15.7164 20.1305 14.8512 20.137C14.022 20.1436 13.3886 19.4449 13.3429 18.3871C13.3037 17.4762 13.3331 16.5653 13.3331 15.5598Z" fill="white" fill-opacity="0.81"/>
<path d="M36.2755 11.4593C35.2471 11.4789 34.3819 10.63 34.3917 9.60487C34.3982 8.58952 35.1948 7.76027 36.1873 7.73415C37.2973 7.70803 38.0972 8.49811 38.0972 9.62446C38.0972 10.6235 37.2876 11.4397 36.2755 11.4593Z" fill="white" fill-opacity="0.81"/>
<path d="M40.6851 11.642C41.6482 11.6518 42.4612 12.4647 42.4644 13.418C42.4677 14.5215 41.6319 15.4161 40.6067 15.403C39.5947 15.3899 38.7491 14.4987 38.7719 13.467C38.7948 12.4386 39.6371 11.6354 40.6851 11.6452V11.642Z" fill="white" fill-opacity="0.81"/>
<path d="M32.0018 15.6414C30.9767 15.5827 30.2453 14.7175 30.2943 13.6107C30.3368 12.6313 31.3031 11.8053 32.3185 11.8869C33.2228 11.9587 34.0423 12.8892 34.0031 13.8066C33.9607 14.8709 33.0531 15.7035 32.0018 15.6414Z" fill="white" fill-opacity="0.81"/>
<path d="M38.358 17.6329C38.371 18.7005 37.5026 19.5918 36.4611 19.582C35.547 19.5722 34.6622 18.6482 34.6524 17.6949C34.6426 16.6632 35.4752 15.8209 36.5166 15.8209C37.5222 15.8209 38.3482 16.6306 38.3612 17.6361L38.358 17.6329Z" fill="white" fill-opacity="0.81"/>
</svg>
